<?xml version="1.0" encoding="UTF-8"?>
<svg version="1.1" xmlns="http://www.w3.org/2000/svg" width="665" height="375">
<path d="M0 0 C1.08152344 0.68449219 2.16304687 1.36898437 3.27734375 2.07421875 C8.86119821 5.69785731 14.17899266 9.39812936 19 14 C19 14.66 19 15.32 19 16 C19.928125 16.37125 19.928125 16.37125 20.875 16.75 C23.40358627 18.23740369 23.71839004 19.43678009 25 22 C25.56976563 22.23332031 26.13953125 22.46664062 26.7265625 22.70703125 C30.10841267 24.6303859 32.08007006 27.62732949 34.375 30.6875 C35.34650975 31.95530646 36.31915599 33.22224289 37.29296875 34.48828125 C37.75751465 35.09494629 38.22206055 35.70161133 38.70068359 36.32666016 C41.02293662 39.3174009 43.49784043 42.15971076 46 45 C56.60983007 42.36635424 63.64089402 35.78503494 71 28 C71.99 28.33 72.98 28.66 74 29 C71.37712343 38.52518332 66.70081567 46.74078302 60 54 C59.34 54.33 58.68 54.66 58 55 C58.70768358 57.95800528 58.70768358 57.95800528 60 61 C61.93330603 62.09166275 61.93330603 62.09166275 64 63 C65.5 65.125 65.5 65.125 67 68 C67.49693359 68.93779297 67.49693359 68.93779297 68.00390625 69.89453125 C70.75440169 75.20268296 73 79.91588624 73 86 C72.01 86 71.02 86 70 86 C68.30859375 84.09375 68.30859375 84.09375 66.4375 81.5 C61.54856497 75.16415588 55.77599007 69.20930681 48.125 66.375 C44.14472924 64.62368087 43.33880088 62.63050559 41 59 C39.29599783 56.88542722 37.58137267 54.80790415 35.8125 52.75 C35.33127686 52.18716309 34.85005371 51.62432617 34.35424805 51.04443359 C32.90782476 49.35857104 31.45507928 47.67839353 30 46 C28.7934375 44.60394531 28.7934375 44.60394531 27.5625 43.1796875 C19.61169058 34.15220597 10.64923331 27.11286341 1 20 C0.37996094 19.49855469 -0.24007812 18.99710938 -0.87890625 18.48046875 C-5.89037292 14.98259423 -11.65621457 12.57445801 -17.14257812 9.91308594 C-18.59270306 9.20022221 -20.02647759 8.45407084 -21.453125 7.6953125 C-29.18978151 3.76606569 -39.3683327 2 -48 2 C-47.40574219 2.25652344 -46.81148437 2.51304688 -46.19921875 2.77734375 C-30.72590872 9.92442474 -17.9702269 22.72219626 -11.5546875 38.5703125 C-5.76321663 54.42239562 -4.6005127 70.07376785 -11 86 C-11.40863281 87.08410156 -11.81726563 88.16820312 -12.23828125 89.28515625 C-14.30202563 94.54355138 -16.31219225 98.67879016 -20 103 C-20.54140625 103.65742188 -21.0828125 104.31484375 -21.640625 104.9921875 C-30.24818217 115.0621937 -39.78087342 121.91492896 -52 127 C-37.9784085 126.28623861 -37.9784085 126.28623861 -24 125 C-24.125 126.875 -24.125 126.875 -25 129 C-27.3828125 130.0859375 -27.3828125 130.0859375 -31 131 C-31.76538086 131.20399414 -32.53076172 131.40798828 -33.31933594 131.61816406 C-74.56833459 142.21975855 -117.36637155 135.47106924 -154 114 C-155.00160156 113.41476563 -156.00320312 112.82953125 -157.03515625 112.2265625 C-166.70176882 106.3014158 -175.74750094 99.21548235 -184.171875 91.640625 C-185.43575039 90.50637786 -186.71847668 89.39291505 -188.015625 88.296875 C-192.8329078 84.21505522 -196.97375752 79.85676783 -201 75 C-201.65742188 74.26523438 -202.31484375 73.53046875 -202.9921875 72.7734375 C-206.03037808 69.22278104 -207.8265796 66.71680431 -208.9375 62.125 C-208.32931079 56.09080899 -203.69563925 51.49695908 -200 47 C-199.18273437 45.96875 -198.36546875 44.9375 -197.5234375 43.875 C-193.4235266 38.75728462 -189.24010524 33.99922327 -184.16796875 29.828125 C-182.00247228 28.00208473 -179.97026598 26.06720422 -177.92773438 24.10595703 C-171.37937899 17.87300408 -164.30196877 12.88548114 -156.66674805 8.06958008 C-155.15714462 7.10084233 -153.68342763 6.07673747 -152.21484375 5.046875 C-108.06497858 -23.06312421 -45.09456821 -28.93798672 0 0 Z " fill="#F5FAFB" transform="translate(401,111)"/>
<path d="M0 0 C1.08152344 0.68449219 2.16304687 1.36898437 3.27734375 2.07421875 C8.86119821 5.69785731 14.17899266 9.39812936 19 14 C19 14.66 19 15.32 19 16 C19.928125 16.37125 19.928125 16.37125 20.875 16.75 C23.40358627 18.23740369 23.71839004 19.43678009 25 22 C25.56976563 22.23332031 26.13953125 22.46664062 26.7265625 22.70703125 C30.10841267 24.6303859 32.08007006 27.62732949 34.375 30.6875 C35.34650975 31.95530646 36.31915599 33.22224289 37.29296875 34.48828125 C37.75751465 35.09494629 38.22206055 35.70161133 38.70068359 36.32666016 C41.02293662 39.3174009 43.49784043 42.15971076 46 45 C56.60983007 42.36635424 63.64089402 35.78503494 71 28 C71.99 28.33 72.98 28.66 74 29 C71.37712343 38.52518332 66.70081567 46.74078302 60 54 C59.34 54.33 58.68 54.66 58 55 C58.70768358 57.95800528 58.70768358 57.95800528 60 61 C61.93330603 62.09166275 61.93330603 62.09166275 64 63 C65.5 65.125 65.5 65.125 67 68 C67.49693359 68.93779297 67.49693359 68.93779297 68.00390625 69.89453125 C70.75440169 75.20268296 73 79.91588624 73 86 C72.01 86 71.02 86 70 86 C68.30859375 84.09375 68.30859375 84.09375 66.4375 81.5 C61.54856497 75.16415588 55.77599007 69.20930681 48.125 66.375 C44.14472924 64.62368087 43.33880088 62.63050559 41 59 C39.29599783 56.88542722 37.58137267 54.80790415 35.8125 52.75 C35.33127686 52.18716309 34.85005371 51.62432617 34.35424805 51.04443359 C32.90782476 49.35857104 31.45507928 47.67839353 30 46 C28.7934375 44.60394531 28.7934375 44.60394531 27.5625 43.1796875 C19.61169058 34.15220597 10.64923331 27.11286341 1 20 C0.37996094 19.49855469 -0.24007812 18.99710938 -0.87890625 18.48046875 C-5.89037292 14.98259423 -11.65621457 12.57445801 -17.14257812 9.91308594 C-18.59270306 9.20022221 -20.02647759 8.45407084 -21.453125 7.6953125 C-28.7418286 3.99356933 -37.00264299 3.211999 -45 2 C-45 1.34 -45 0.68 -45 0 C-68.34913864 -0.87881914 -68.34913864 -0.87881914 -91 4 C-91.89589844 4.26554687 -92.79179687 4.53109375 -93.71484375 4.8046875 C-108.2088997 9.61314208 -121.01056175 22.7866334 -128 36 C-131.02798288 43.07049612 -133.82499576 50.24596613 -134 58 C-134.04060547 59.7325 -134.04060547 59.7325 -134.08203125 61.5 C-134.12390651 65.33729663 -134.07923246 69.16348076 -134 73 C-134.00644531 73.7940625 -134.01289063 74.588125 -134.01953125 75.40625 C-133.52144103 87.73991269 -125.52619326 100.61634188 -117 109 C-102.06800727 122.6402806 -84.59046079 128.6639506 -64.46484375 128.234375 C-50.95266206 127.6075377 -37.45179941 126.40118982 -24 125 C-24.35107422 126.93212891 -24.35107422 126.93212891 -25 129 C-27.3828125 130.0859375 -27.3828125 130.0859375 -31 131 C-31.76538086 131.20399414 -32.53076172 131.40798828 -33.31933594 131.61816406 C-74.56833459 142.21975855 -117.36637155 135.47106924 -154 114 C-155.00160156 113.41476563 -156.00320312 112.82953125 -157.03515625 112.2265625 C-166.70176882 106.3014158 -175.74750094 99.21548235 -184.171875 91.640625 C-185.43575039 90.50637786 -186.71847668 89.39291505 -188.015625 88.296875 C-192.8329078 84.21505522 -196.97375752 79.85676783 -201 75 C-201.65742188 74.26523438 -202.31484375 73.53046875 -202.9921875 72.7734375 C-206.03037808 69.22278104 -207.8265796 66.71680431 -208.9375 62.125 C-208.32931079 56.09080899 -203.69563925 51.49695908 -200 47 C-199.18273437 45.96875 -198.36546875 44.9375 -197.5234375 43.875 C-193.4235266 38.75728462 -189.24010524 33.99922327 -184.16796875 29.828125 C-182.00247228 28.00208473 -179.97026598 26.06720422 -177.92773438 24.10595703 C-171.37937899 17.87300408 -164.30196877 12.88548114 -156.66674805 8.06958008 C-155.15714462 7.10084233 -153.68342763 6.07673747 -152.21484375 5.046875 C-108.06497858 -23.06312421 -45.09456821 -28.93798672 0 0 Z " fill="#1676B5" transform="translate(401,111)"/>
<path d="M0 0 C4.41285093 3.14762793 8.33756029 6.83761452 12.234375 10.59375 C12.76160156 11.06039062 13.28882813 11.52703125 13.83203125 12.0078125 C15.80664853 14.24094514 16.97392733 16.67755368 18.296875 19.34375 C18.80347656 20.34921875 19.31007813 21.3546875 19.83203125 22.390625 C22.51764393 28.52489351 23.63484144 34.15604726 23.734375 40.78125 C23.775625 41.47927734 23.816875 42.17730469 23.859375 42.89648438 C23.890625 44.94921875 23.890625 44.94921875 23.234375 48.59375 C15.739123 54.98736468 6.80238237 54.27167514 -2.54052734 53.83789062 C-7.08001601 53.33981199 -10.2245615 51.292482 -13.765625 48.59375 C-15.08619011 47.90213594 -16.41666657 47.22820517 -17.765625 46.59375 C-18.4875 47.2125 -19.209375 47.83125 -19.953125 48.46875 C-24.3656051 51.80262385 -28.08315759 53.14073542 -33.7109375 53.06640625 C-36.99956207 52.30989756 -38.86944775 50.2229106 -41.125 47.80859375 C-42.69305023 46.36961917 -42.69305023 46.36961917 -44.75 46.75 C-46.8919275 47.64662081 -48.4291825 48.74267255 -50.265625 50.15625 C-55.5400179 53.53777666 -60.69249153 53.56578367 -66.765625 52.59375 C-70.08392768 51.62893258 -71.96898412 50.59018158 -73.765625 47.59375 C-75.90857002 37.10380933 -72.68100288 24.75521875 -67.078125 15.78125 C-66.01238763 14.35585932 -64.90625774 12.95994606 -63.765625 11.59375 C-63.14042969 10.83449219 -62.51523437 10.07523438 -61.87109375 9.29296875 C-46.41631475 -7.76750157 -19.86139339 -11.8878413 0 0 Z " fill="#31A3D4" transform="translate(350.765625,135.40625)"/>
<path d="M0 0 C3.00882093 0.54705835 4.35606755 1.22728106 6.30859375 3.5703125 C9.26204525 6.06676342 12.56176999 5.39486058 16.265625 5.296875 C20.80335436 4.80420724 23.81235415 3.18764585 27 0 C29.94861677 0.21061548 31.24932269 1.19466636 33.6015625 3.03125 C37.87257276 5.50549043 40.7994421 5.5386129 45.625 5.375 C46.80618408 5.35566406 46.80618408 5.35566406 48.01123047 5.3359375 C54.45037722 5.16790268 60.7044717 4.38254739 67 3 C65.68877561 7.23626342 64.38798533 11.24745162 62 15 C58.8125 16.375 58.8125 16.375 56 17 C55.67 16.67 55.34 16.34 55 16 C54.01 16.66 53.02 17.32 52 18 C53.32 18.66 54.64 19.32 56 20 C55.63753505 22.46282849 55.45273634 23.65920512 53.42114258 25.18847656 C52.75236084 25.50268555 52.0835791 25.81689453 51.39453125 26.140625 C50.65783203 26.48867187 49.92113281 26.83671875 49.16210938 27.1953125 C48.38673828 27.54335937 47.61136719 27.89140625 46.8125 28.25 C46.05646484 28.61351562 45.30042969 28.97703125 44.52148438 29.3515625 C40.22781218 31.33268445 36.82692567 32.61714118 32 32 C30.125 30.5 30.125 30.5 29 29 C28.443125 29.28875 27.88625 29.5775 27.3125 29.875 C20.45291562 33.2120951 14.61542134 33.79170222 7 33 C4.30434717 31.96471304 2.42408308 30.64837649 0 29 C-2.31670377 28.16506914 -4.60351381 27.58689458 -7 27 C-7 25.68 -7 24.36 -7 23 C-5.68 22.67 -4.36 22.34 -3 22 C-3 21.01 -3 20.02 -3 19 C-0.03 18.67 2.94 18.34 6 18 C6 15.84365964 5.5534764 14.07553648 5 12 C2.33793923 11.0384842 2.33793923 11.0384842 -1 11 C-2.66221932 12.03667236 -2.66221932 12.03667236 -4.25 13.4375 C-7.96026502 16.37273189 -11.02010355 16.79306472 -15.6953125 16.55859375 C-19.73658681 15.57909845 -20.85502702 13.4855811 -23 10 C-24.65815828 7.23640286 -25 6.28396216 -25 3 C-23.88625 3.495 -23.88625 3.495 -22.75 4 C-17.10624261 5.50500197 -10.17571078 6.75469527 -4.84375 3.80859375 C-4.2559375 3.33550781 -3.668125 2.86242187 -3.0625 2.375 C-2.051875 1.59125 -1.04125 0.8075 0 0 Z M50 15 C50.33 15.66 50.66 16.32 51 17 C51.33 16.34 51.66 15.68 52 15 C51.34 15 50.68 15 50 15 Z " fill="#EBF7FA" transform="translate(305,190)"/>
<path d="M0 0 C3.00882093 0.54705835 4.35606755 1.22728106 6.30859375 3.5703125 C9.26204525 6.06676342 12.56176999 5.39486058 16.265625 5.296875 C20.80335436 4.80420724 23.81235415 3.18764585 27 0 C29.94861677 0.21061548 31.24932269 1.19466636 33.6015625 3.03125 C37.87257276 5.50549043 40.7994421 5.5386129 45.625 5.375 C46.80618408 5.35566406 46.80618408 5.35566406 48.01123047 5.3359375 C54.45037722 5.16790268 60.7044717 4.38254739 67 3 C65.74194623 7.50802601 64.09592835 10.4912812 61 14 C58.13275314 13.42655063 57.1385485 13.1385485 55 11 C51.63440515 11.32570273 50.26907513 12.63226943 48 15 C42.74461396 16.75179535 38.51111219 16.64761951 33.5 14.5 C32.675 14.005 31.85 13.51 31 13 C31 12.34 31 11.68 31 11 C30.34 11 29.68 11 29 11 C29 10.34 29 9.68 29 9 C28.09121094 9.75796875 28.09121094 9.75796875 27.1640625 10.53125 C21.93514434 14.58567269 18.05712083 17.03652856 11.32421875 16.58203125 C7.50654995 15.62600999 5.07930413 13.40185722 2 11 C-1.05593999 11.32910123 -2.14039642 12.11031147 -4.625 14.0625 C-9.12269089 16.64450774 -12.92243291 17.13588312 -18 16 C-21.35384032 13.58772506 -23.54714371 9.8302575 -25 6 C-25 5.01 -25 4.02 -25 3 C-23.88625 3.495 -23.88625 3.495 -22.75 4 C-17.10624261 5.50500197 -10.17571078 6.75469527 -4.84375 3.80859375 C-4.2559375 3.33550781 -3.668125 2.86242187 -3.0625 2.375 C-2.051875 1.59125 -1.04125 0.8075 0 0 Z " fill="#217EB7" transform="translate(305,190)"/>
<path d="M0 0 C3.97868664 1.25642736 5.52572625 2.50076447 8.375 5.5 C10.65214588 10.40462189 10.78507883 14.67891013 10 20 C7.54432448 25.00230198 4.0029693 28.49851535 -1 31 C-5.46218182 31.72987361 -9.38356901 31.94691914 -13.3671875 29.61328125 C-17.91299873 25.77515125 -20.55027933 22.70544497 -21.27734375 16.71484375 C-21.62297525 11.1257295 -20.89699703 7.76021251 -17.38671875 3.375 C-12.46108949 -1.50900422 -6.48366822 -0.50304322 0 0 Z " fill="#1B75B3" transform="translate(243,143)"/>
<path d="M0 0 C3.57707847 1.10063953 6.93230311 2.41071445 10.3125 4 C14.76895983 6.03117557 19.19301206 7.13633314 24 8 C24 8.66 24 9.32 24 10 C25.216875 9.979375 26.43375 9.95875 27.6875 9.9375 C30.91977322 9.93175884 33.84934741 10.21233685 37 11 C38.32 9.35 39.64 7.7 41 6 C39.02 5.01 37.04 4.02 35 3 C35 2.34 35 1.68 35 1 C39.7016692 2.49908293 44.28178642 4.10188327 48.8125 6.0625 C69.63860877 14.42498367 95.33209474 9.25701018 117 7 C116.64892578 8.93212891 116.64892578 8.93212891 116 11 C113.6171875 12.0859375 113.6171875 12.0859375 110 13 C109.23461914 13.20399414 108.46923828 13.40798828 107.68066406 13.61816406 C71.42484892 22.93643754 31.36308156 19.52514236 -2 2 C-1.34 1.34 -0.68 0.68 0 0 Z " fill="#3D80B0" transform="translate(260,229)"/>
<path d="M0 0 C6.85095225 -0.5734614 10.4293205 0.78359439 16 4.6875 C17.01900391 5.34008789 17.01900391 5.34008789 18.05859375 6.00585938 C19.88049189 7.24306385 21.4862461 8.40002694 23 10 C23.4375 12.83203125 23.4375 12.83203125 23 15 C23.556875 15.226875 24.11375 15.45375 24.6875 15.6875 C27.71572375 17.40622159 29.77323664 19.32788397 32 22 C31.8125 24.3125 31.8125 24.3125 31 26 C30.34 26 29.68 26 29 26 C28.34 25.01 27.68 24.02 27 23 C26.34 24.65 25.68 26.3 25 28 C24.278125 27.54625 23.55625 27.0925 22.8125 26.625 C20.12156081 24.94916615 20.12156081 24.94916615 17.4375 24.125 C14.33744043 22.69420328 13.05823446 20.6757048 11 18 C10.01 17.67 9.02 17.34 8 17 C8 16.34 8 15.68 8 15 C6.906875 14.731875 5.81375 14.46375 4.6875 14.1875 C-0.13357731 12.63494968 -0.13357731 12.63494968 -2 10 C-2 9.34 -2 8.68 -2 8 C-3.98 8 -5.96 8 -8 8 C-4.375 5 -4.375 5 -1 5 C-0.67 3.35 -0.34 1.7 0 0 Z " fill="#1576B6" transform="translate(390,109)"/>
<path d="M0 0 C0.59941406 0.50402344 1.19882812 1.00804687 1.81640625 1.52734375 C5.79723034 4.21208558 10.38522162 3.62750528 15 3 C17.53247659 1.88682348 19.65081824 0.48621703 22 -1 C24.79554797 -0.917778 25.92702052 -0.05005399 28.23828125 1.53515625 C31.43263038 3.22947156 33.46911413 3.40225704 37.0625 3.375 C38.08472656 3.38273438 39.10695313 3.39046875 40.16015625 3.3984375 C43.33283223 2.95330277 44.57316287 1.99825662 47 0 C49.25 0.3125 49.25 0.3125 51 1 C45.44949247 6.2504801 38.54520984 10.67534215 30.7734375 11.23046875 C28 11 28 11 26.125 9.5 C25.75375 9.005 25.3825 8.51 25 8 C24.443125 8.28875 23.88625 8.5775 23.3125 8.875 C16.45291562 12.2120951 10.61542134 12.79170222 3 12 C0.30434717 10.96471304 -1.57591692 9.64837649 -4 8 C-6.31670377 7.16506914 -8.60351381 6.58689458 -11 6 C-11 4.68 -11 3.36 -11 2 C-6.92603082 -0.36858673 -4.54661189 -1.67506754 0 0 Z " fill="#157DBE" transform="translate(309,211)"/>
<path d="M0 0 C5.06311024 -0.83339691 10.4788815 -0.54312916 15 2 C17 4 17 4 17.16015625 6.1015625 C17.12792969 6.93429687 17.09570312 7.76703125 17.0625 8.625 C16.97486857 11.99394154 17.10143098 15.05809871 17.6875 18.375 C18 22 18 22 16.75 24.4375 C13.44008267 27.39278333 10.10992082 27.13520463 5.875 27.125 C4.79992187 27.12757813 3.72484375 27.13015625 2.6171875 27.1328125 C0 27 0 27 -1 26 C-1.41130221 22.22245817 -1.51685698 18.42010071 -1.6875 14.625 C-1.74744141 13.55765625 -1.80738281 12.4903125 -1.86914062 11.390625 C-1.91619141 10.36710937 -1.96324219 9.34359375 -2.01171875 8.2890625 C-2.05772217 7.34756348 -2.10372559 6.40606445 -2.15112305 5.43603516 C-2 3 -2 3 0 0 Z M5 5 C4.67 6.65 4.34 8.3 4 10 C7.28976808 11.09658936 8.71303767 10.79953138 12 10 C11.50243908 7.24358584 11.50243908 7.24358584 10 5 C8.33382885 4.95936168 6.66611905 4.957279 5 5 Z M4 16 C4 17.98 4 19.96 4 22 C6.91482778 22.80967438 8.46113217 23.21845993 11.3125 22.0625 C11.869375 21.711875 12.42625 21.36125 13 21 C12.67 19.35 12.34 17.7 12 16 C9.36 16 6.72 16 4 16 Z " fill="#4282AF" transform="translate(203,263)"/>
<path d="M0 0 C6.77454079 2.66142674 10.18479816 10.1904881 14 16 C14.33 11.05 14.66 6.1 15 1 C16.32 0.67 17.64 0.34 19 0 C20 1 20 1 20.11352539 3.40844727 C20.10828857 4.45057373 20.10305176 5.4927002 20.09765625 6.56640625 C20.09443359 7.69111328 20.09121094 8.81582031 20.08789062 9.97460938 C20.07951172 11.15861328 20.07113281 12.34261719 20.0625 13.5625 C20.05798828 14.75037109 20.05347656 15.93824219 20.04882812 17.16210938 C20.03699675 20.10812226 20.02051287 23.05403681 20 26 C18.68 26.33 17.36 26.66 16 27 C14.37380483 24.89674758 12.74900468 22.79244271 11.125 20.6875 C10.66480469 20.09259766 10.20460938 19.49769531 9.73046875 18.88476562 C7.73752851 16.29971995 5.81133955 13.71700932 4 11 C3.67 15.95 3.34 20.9 3 26 C1.68 26 0.36 26 -1 26 C-1.8607467 20.72792648 -2.13617573 15.52586524 -2.1875 10.1875 C-2.20167969 8.90230469 -2.21585937 7.61710937 -2.23046875 6.29296875 C-2 3 -2 3 0 0 Z " fill="#35779F" transform="translate(437,263)"/>
<path d="M0 0 C3.34280234 1.7066628 5.45292653 4.07992189 7.375 7.3125 C8.56294874 12.42067959 8.56237398 16.43127257 6.8125 21.3125 C4.29298043 25.04833936 1.77697585 26.34532469 -2.375 27.875 C-6.81255451 28.08631212 -10.44909585 26.24072332 -13.875 23.5 C-17.12504235 19.1666102 -16.54167602 13.12396237 -16 8 C-12.30094964 0.72945273 -7.84020722 -1.31116093 0 0 Z M-8.6875 6.5625 C-11.70049059 9.73835494 -12 11.66015201 -12 16 C-10.63571607 18.92346557 -9.27249091 20.72750909 -7 23 C-3.50278106 23.07216639 -3.50278106 23.07216639 0 22 C2.55909079 19.19325527 2.96350588 17.25545886 3.5 13.5 C3.27109842 9.85729698 3.27109842 9.85729698 0.75 7.0625 C-2.87776953 4.34167285 -4.76738819 4.28336523 -8.6875 6.5625 Z " fill="#457AA8" transform="translate(420,263)"/>
<path d="M0 0 C1.28132813 0.00902344 2.56265625 0.01804687 3.8828125 0.02734375 C4.87023437 0.03894531 5.85765625 0.05054688 6.875 0.0625 C7.535 1.3825 8.195 2.7025 8.875 4.0625 C6.875 6.0625 6.875 6.0625 4.2734375 6.2578125 C3.27570313 6.23460937 2.27796875 6.21140625 1.25 6.1875 C-0.25433594 6.16042969 -0.25433594 6.16042969 -1.7890625 6.1328125 C-2.55992187 6.10960937 -3.33078125 6.08640625 -4.125 6.0625 C-4.125 7.3825 -4.125 8.7025 -4.125 10.0625 C-3.49851562 10.05089844 -2.87203125 10.03929687 -2.2265625 10.02734375 C-1.40929687 10.01832031 -0.59203125 10.00929688 0.25 10 C1.06210937 9.98839844 1.87421875 9.97679687 2.7109375 9.96484375 C4.875 10.0625 4.875 10.0625 6.875 11.0625 C6.545 12.7125 6.215 14.3625 5.875 16.0625 C2.575 16.0625 -0.725 16.0625 -4.125 16.0625 C-4.125 18.0425 -4.125 20.0225 -4.125 22.0625 C-0.495 22.0625 3.135 22.0625 6.875 22.0625 C7.205 23.3825 7.535 24.7025 7.875 26.0625 C6.11940058 27.81809942 3.83917558 27.19471919 1.50390625 27.19921875 C0.80136719 27.19535156 0.09882813 27.19148438 -0.625 27.1875 C-1.32753906 27.19136719 -2.03007812 27.19523437 -2.75390625 27.19921875 C-7.99838622 27.18911378 -7.99838622 27.18911378 -9.125 26.0625 C-9.21237645 24.20880389 -9.23198153 22.35182459 -9.22265625 20.49609375 C-9.21943359 19.37138672 -9.21621094 18.24667969 -9.21289062 17.08789062 C-9.20451172 15.90388672 -9.19613281 14.71988281 -9.1875 13.5 C-9.18298828 12.31212891 -9.17847656 11.12425781 -9.17382812 9.90039062 C-9.16199675 6.95437774 -9.14551287 4.00846319 -9.125 1.0625 C-6.12186252 -0.43906874 -3.33432478 -0.03031204 0 0 Z " fill="#206593" transform="translate(292.125,262.9375)"/>
<path d="M0 0 C1.32 0.66 2.64 1.32 4 2 C4.33 8.6 4.66 15.2 5 22 C10.53920401 22.55685659 10.53920401 22.55685659 12.84301758 20.7644043 C14.24322637 18.6290785 14.42156933 17.31174495 14.51171875 14.76953125 C14.54716797 13.96708984 14.58261719 13.16464844 14.61914062 12.33789062 C14.64169922 11.50451172 14.66425781 10.67113281 14.6875 9.8125 C14.72166016 8.96751953 14.75582031 8.12253906 14.79101562 7.25195312 C14.87341471 5.16843351 14.93838645 3.08423784 15 1 C16.9375 0.4375 16.9375 0.4375 19 0 C21.0714327 2.0714327 20.23099411 6.28361918 20.25 9.125 C20.270625 9.87265625 20.29125 10.6203125 20.3125 11.390625 C20.3493189 16.6741375 19.55548188 20.34452722 17 25 C13.0205113 27.52544475 10.98605693 28.15041546 6.3125 27.4375 C2.98222005 25.99228417 1.22985348 24.83019865 -1 22 C-2.2879632 18.1361104 -2.18415915 14.46322278 -2.1875 10.4375 C-2.19974609 9.65697266 -2.21199219 8.87644531 -2.22460938 8.07226562 C-2.22985217 6.04679965 -2.12234328 4.02177448 -2 2 C-1.34 1.34 -0.68 0.68 0 0 Z " fill="#5384A9" transform="translate(254,263)"/>
<path d="M0 0 C4.70073892 2.67087438 4.70073892 2.67087438 6.75 4.5625 C6.75 5.2225 6.75 5.8825 6.75 6.5625 C7.41 6.5625 8.07 6.5625 8.75 6.5625 C13.75 11.91964286 13.75 11.91964286 13.75 15.5625 C12.97269531 15.40007812 12.19539063 15.23765625 11.39453125 15.0703125 C6.71991256 14.41897227 2.15073098 14.41748628 -2.5625 14.4375 C-3.91118164 14.43169922 -3.91118164 14.43169922 -5.28710938 14.42578125 C-11.01870676 14.43406989 -16.56484278 14.83229632 -22.25 15.5625 C-21.02490039 11.88720117 -19.86274524 11.35875066 -16.6875 9.25 C-13.28715457 6.97986924 -10.12348583 4.63411957 -7 2 C-3.70396108 -0.49861015 -3.70396108 -0.49861015 0 0 Z " fill="#2278B1" transform="translate(419.25,215.4375)"/>
<path d="M0 0 C3.97868664 1.25642736 5.52572625 2.50076447 8.375 5.5 C10.65214588 10.40462189 10.78507883 14.67891013 10 20 C7.54432448 25.00230198 4.0029693 28.49851535 -1 31 C-5.46218182 31.72987361 -9.38356901 31.94691914 -13.3671875 29.61328125 C-17.91299873 25.77515125 -20.55027933 22.70544497 -21.27734375 16.71484375 C-21.62297525 11.1257295 -20.89699703 7.76021251 -17.38671875 3.375 C-12.46108949 -1.50900422 -6.48366822 -0.50304322 0 0 Z M-16 6 C-18.73171134 10.42725631 -18.78088941 14.94812364 -18 20 C-16.30921514 23.42349001 -13.89115704 25.46061547 -10.625 27.4375 C-6.1423021 28.39807812 -2.46945307 27.64929322 1.6875 25.8125 C4.68650858 23.46192571 6.26504501 21.40565239 8 18 C8.3137705 15.23583129 8.19284121 12.79619759 8 10 C5.36 10 2.72 10 0 10 C0.020625 8.865625 0.04125 7.73125 0.0625 6.5625 C0.41577477 3.18424326 0.41577477 3.18424326 -1 2 C-7.11079773 1.21524492 -11.22969891 1.81144294 -16 6 Z " fill="#B8DCF2" transform="translate(243,143)"/>
<path d="M0 0 C0.99 0.33 1.98 0.66 3 1 C0.37712343 10.52518332 -4.29918433 18.74078302 -11 26 C-11.66 26.33 -12.32 26.66 -13 27 C-11.98839152 31.39314793 -11.98839152 31.39314793 -8.875 34.375 C-8.25625 34.58125 -7.6375 34.7875 -7 35 C-7.33 35.66 -7.66 36.32 -8 37 C-10.87839991 35.7096828 -13.09054786 34.54593619 -15 32 C-16.14147004 28.2494556 -16.33603072 26.67206143 -14.5625 23.125 C-14.046875 22.42375 -13.53125 21.7225 -13 21 C-13.66 21 -14.32 21 -15 21 C-15 20.34 -15 19.68 -15 19 C-19.29 19 -23.58 19 -28 19 C-28 18.34 -28 17.68 -28 17 C-28.66 17 -29.32 17 -30 17 C-30 17.66 -30 18.32 -30 19 C-30.66 19 -31.32 19 -32 19 C-33.125 11.25 -33.125 11.25 -32 9 C-29.69 11.64 -27.38 14.28 -25 17 C-14.35852429 14.12849068 -7.45780766 7.88944926 0 0 Z " fill="#1272B2" transform="translate(472,139)"/>
<path d="M0 0 C0.99 0.66 1.98 1.32 3 2 C3 3.32 3 4.64 3 6 C-0.3 6 -3.6 6 -7 6 C-7.33 6.99 -7.66 7.98 -8 9 C-7.38511719 9.25394531 -6.77023437 9.50789063 -6.13671875 9.76953125 C-5.32847656 10.11371094 -4.52023437 10.45789063 -3.6875 10.8125 C-2.88699219 11.14894531 -2.08648437 11.48539062 -1.26171875 11.83203125 C1.00735757 13.00379951 2.40731773 14.01542746 4 16 C4.68309469 19.92779445 4.31362682 21.51910554 2.125 24.875 C-1.70100192 27.4766813 -4.07982579 27.52443974 -8.59765625 27.46875 C-11.40459963 26.92105373 -12.8613469 25.8571214 -15 24 C-14.505 22.515 -14.505 22.515 -14 21 C-13.30132812 21.08378906 -12.60265625 21.16757812 -11.8828125 21.25390625 C-10.97273438 21.35574219 -10.06265625 21.45757812 -9.125 21.5625 C-8.22007812 21.66691406 -7.31515625 21.77132813 -6.3828125 21.87890625 C-3.98346943 22.19674852 -3.98346943 22.19674852 -2 21 C-1.34786708 18.97536745 -1.34786708 18.97536745 -1 17 C-1.60328125 16.91363281 -2.2065625 16.82726562 -2.828125 16.73828125 C-6.90242316 16.02199335 -9.42995659 15.48860864 -12.625 12.75 C-14.36382113 9.27235775 -14.19501672 7.66471794 -13 4 C-9.61256693 -0.46525269 -5.27261396 -0.28246146 0 0 Z " fill="#3E76A1" transform="translate(379,263)"/>
<path d="M0 0 C0.99 0.33 1.98 0.66 3 1 C4.31640625 3.80078125 4.31640625 3.80078125 5.5625 7.3125 C7.51865833 12.77068858 7.51865833 12.77068858 10 18 C10.47050781 16.86820312 10.94101562 15.73640625 11.42578125 14.5703125 C12.05421255 13.08834018 12.68314496 11.60658027 13.3125 10.125 C13.62123047 9.37863281 13.92996094 8.63226563 14.24804688 7.86328125 C14.55419922 7.14785156 14.86035156 6.43242187 15.17578125 5.6953125 C15.45333252 5.03547363 15.73088379 4.37563477 16.0168457 3.69580078 C17 2 17 2 20 0 C20.66 0.33 21.32 0.66 22 1 C21.42746196 6.58224588 19.35617757 10.99312266 17 16 C16.08137019 18.01994168 15.16471104 20.04078072 14.25 22.0625 C13.50037868 23.70850584 12.75051581 25.35440182 12 27 C9.625 26.734375 9.625 26.734375 7 26 C5.8125 24.390625 5.8125 24.390625 5 22.25 C4.52820313 21.04730469 4.52820313 21.04730469 4.046875 19.8203125 C3.70140625 18.88960938 3.3559375 17.95890625 3 17 C2.55140625 15.88367188 2.1028125 14.76734375 1.640625 13.6171875 C-2 4.4747191 -2 4.4747191 -2 1 C-1.34 0.67 -0.68 0.34 0 0 Z " fill="#296695" transform="translate(323,263)"/>
<path d="M0 0 C1.46670113 5.22512279 2.22577402 9.5814234 2 15 C-1.50776784 16.60355101 -4.14354879 17.22036864 -8 17 C-8 17.99 -8 18.98 -8 20 C-10 20 -10 20 -11.6015625 18.78125 C-13.35686651 16.54544377 -13.40315364 15.31536388 -13.375 12.5 C-13.38273438 11.7265625 -13.39046875 10.953125 -13.3984375 10.15625 C-12.9117905 7.52263093 -11.95571828 6.75305317 -10 5 C-9.835 4.29875 -9.67 3.5975 -9.5 2.875 C-9.335 2.25625 -9.17 1.6375 -9 1 C-5.8035914 -0.06546953 -3.34252724 -0.07427838 0 0 Z " fill="#1174B6" transform="translate(240,147)"/>
<path d="M0 0 C0.33 0 0.66 0 1 0 C1.125 3.375 1.125 3.375 1 7 C0.34 7.66 -0.32 8.32 -1 9 C-1.39764263 10.98821313 -1.73775349 12.98944339 -2 15 C-2.66 15 -3.32 15 -4 15 C-3.96699341 17.27145346 -3.89759995 19.54240126 -3.8125 21.8125 C-3.77769531 23.07707031 -3.74289062 24.34164062 -3.70703125 25.64453125 C-3.33258518 29.11559871 -3.33258518 29.11559871 -0.73046875 30.93359375 C4.47155727 32.96528632 10.67670693 32.66352908 16 31 C16.33 30.34 16.66 29.68 17 29 C17.66 29 18.32 29 19 29 C18.67 28.01 18.34 27.02 18 26 C22.25061356 24.58312881 24.71851625 25.80679961 29 27 C29 28.32 29 29.64 29 31 C32.89181797 32.29727266 36.95323546 32.58819252 41 32 C44.14748615 30.17946646 44.14748615 30.17946646 47 28 C50.375 26.75 50.375 26.75 53 26 C52 29 52 29 50.171875 30.0546875 C49.45515625 30.36664063 48.7384375 30.67859375 48 31 C47.38640625 31.35320312 46.7728125 31.70640625 46.140625 32.0703125 C41.14750292 34.85573184 37.71268568 35.9067755 32 35 C29.99227875 33.54838891 28.33114764 32.02435949 26.640625 30.21484375 C25.07257477 28.77586917 25.07257477 28.77586917 23.015625 29.15625 C20.8736975 30.05287081 19.3364425 31.14892255 17.5 32.5625 C12.2256071 35.94402666 7.07313347 35.97203367 1 35 C-2.31830268 34.03518258 -4.20335912 32.99643158 -6 30 C-7.86612173 20.86513837 -5.16132179 11.56095171 -2 3 C-1.34 2.01 -0.68 1.02 0 0 Z " fill="#57A9C8" transform="translate(283,153)"/>
<path d="M0 0 C0.99 0.33 1.98 0.66 3 1 C3 7.93 3 14.86 3 22 C5.64 22 8.28 22 11 22 C13.5 22.5 13.5 22.5 15 23 C15 24.32 15 25.64 15 27 C12.35409986 27.02684679 9.70846904 27.04676357 7.0625 27.0625 C6.30775391 27.07087891 5.55300781 27.07925781 4.77539062 27.08789062 C2.85005687 27.09652441 0.92464419 27.05224333 -1 27 C-2 26 -2 26 -2.11352539 23.59155273 C-2.10828857 22.54942627 -2.10305176 21.5072998 -2.09765625 20.43359375 C-2.09443359 19.30888672 -2.09121094 18.18417969 -2.08789062 17.02539062 C-2.07951172 15.84138672 -2.07113281 14.65738281 -2.0625 13.4375 C-2.05798828 12.24962891 -2.05347656 11.06175781 -2.04882812 9.83789062 C-2.03699675 6.89187774 -2.02051287 3.94596319 -2 1 C-1.34 0.67 -0.68 0.34 0 0 Z " fill="#447AA8" transform="translate(231,263)"/>
<path d="M0 0 C-0.125 1.875 -0.125 1.875 -1 4 C-3.546875 5 -3.546875 5 -7 6 C-8.82917969 6.52980469 -8.82917969 6.52980469 -10.6953125 7.0703125 C-27.85102288 11.34935322 -45.4582087 10.37274156 -63 10 C-63 9.67 -63 9.34 -63 9 C-52.44 8.67 -41.88 8.34 -31 8 C-31 7.34 -31 6.68 -31 6 C-36.94 6 -42.88 6 -49 6 C-49 5.67 -49 5.34 -49 5 C-44.77084783 4.97091367 -40.54172148 4.95317208 -36.3125 4.9375 C-35.11431641 4.92912109 -33.91613281 4.92074219 -32.68164062 4.91210938 C-30.94624023 4.90727539 -30.94624023 4.90727539 -29.17578125 4.90234375 C-28.11270752 4.89710693 -27.04963379 4.89187012 -25.9543457 4.88647461 C-23.1865491 4.99283156 -20.69207103 5.37105212 -18 6 C-18 5.34 -18 4.68 -18 4 C-15.29120665 2.64560332 -12.99066732 2.93498549 -10 3 C-10 2.34 -10 1.68 -10 1 C-6.56484998 0.37542727 -3.50935186 0 0 0 Z " fill="#196296" transform="translate(377,236)"/>
<path d="M0 0 C2.57030458 0.36718637 4.09271358 1.06244956 6.26171875 2.5234375 C9.44561069 4.24028651 11.46826588 4.40226347 15.0625 4.375 C16.59583984 4.38660156 16.59583984 4.38660156 18.16015625 4.3984375 C21.33283223 3.95330277 22.57316287 2.99825662 25 1 C27.25 1.3125 27.25 1.3125 29 2 C23.44949247 7.2504801 16.54520984 11.67534215 8.7734375 12.23046875 C6 12 6 12 4.125 10.5 C3.75375 10.005 3.3825 9.51 3 9 C2.4225 9.309375 1.845 9.61875 1.25 9.9375 C-0.88371067 10.9450856 -2.6614904 11.68819872 -5 12 C-5.66 11.34 -6.32 10.68 -7 10 C-6.34 10 -5.68 10 -5 10 C-5 9.34 -5 8.68 -5 8 C-3.865625 7.731875 -2.73125 7.46375 -1.5625 7.1875 C-0.386875 6.795625 0.78875 6.40375 2 6 C2.33 5.01 2.66 4.02 3 3 C1.68 2.34 0.36 1.68 -1 1 C-0.67 0.67 -0.34 0.34 0 0 Z " fill="#3683B2" transform="translate(331,210)"/>
<path d="M0 0 C5.06311024 -0.83339691 10.4788815 -0.54312916 15 2 C17 4 17 4 17.1953125 6.6015625 C17.17210937 7.59929687 17.14890625 8.59703125 17.125 9.625 C17.10695312 10.62789063 17.08890625 11.63078125 17.0703125 12.6640625 C17.04710937 13.43492187 17.02390625 14.20578125 17 15 C14.36 14.67 11.72 14.34 9 14 C9.33 13.34 9.66 12.68 10 12 C9.01 11.34 8.02 10.68 7 10 C8.65 10 10.3 10 12 10 C11.34 8.68 10.68 7.36 10 6 C8.35 6 6.7 6 5 6 C4.67 7.32 4.34 8.64 4 10 C4.66 10.33 5.32 10.66 6 11 C5.01 11 4.02 11 3 11 C2.34 8.69 1.68 6.38 1 4 C0.67 11.26 0.34 18.52 0 26 C-0.33 26 -0.66 26 -1 26 C-1.22567411 22.22999352 -1.42755846 18.45908213 -1.625 14.6875 C-1.68945312 13.61564453 -1.75390625 12.54378906 -1.8203125 11.43945312 C-1.871875 10.41142578 -1.9234375 9.38339844 -1.9765625 8.32421875 C-2.02893066 7.37635498 -2.08129883 6.42849121 -2.13525391 5.4519043 C-2 3 -2 3 0 0 Z " fill="#4F8CB2" transform="translate(203,263)"/>
<path d="M0 0 C0.68432098 -0.00367584 1.36864197 -0.00735168 2.07369995 -0.01113892 C18.95950076 -0.05852752 18.95950076 -0.05852752 26.4375 2.3125 C26.9325 3.3025 26.9325 3.3025 27.4375 4.3125 C26.74382324 4.2417627 26.05014648 4.17102539 25.33544922 4.09814453 C17.0634362 3.32387649 8.86706013 3.16215546 0.5625 3.1875 C-0.69691406 3.18363281 -1.95632813 3.17976563 -3.25390625 3.17578125 C-19.83125174 2.81801902 -19.83125174 2.81801902 -35.6875 6.8125 C-42.02800503 9.3013634 -47.77712693 10.17579834 -54.5625 10.3125 C-39.21577758 0.08135172 -17.71834334 0.04594651 0 0 Z " fill="#3577A1" transform="translate(332.5625,92.6875)"/>
<path d="M0 0 C3.33972079 1.71575508 5.45134716 4.07726568 7.375 7.3125 C8.24084523 11.03563449 8.2509641 14.17279748 8 18 C7.34 18.66 6.68 19.32 6 20 C6.01160156 19.37351562 6.02320313 18.74703125 6.03515625 18.1015625 C6.04417969 17.28429687 6.05320312 16.46703125 6.0625 15.625 C6.07410156 14.81289063 6.08570313 14.00078125 6.09765625 13.1640625 C6.14466334 10.95062858 6.14466334 10.95062858 5 9 C4.90912109 9.93972656 4.90912109 9.93972656 4.81640625 10.8984375 C4.73261719 11.71570313 4.64882813 12.53296875 4.5625 13.375 C4.48128906 14.18710937 4.40007812 14.99921875 4.31640625 15.8359375 C4 18 4 18 3 20 C2.34 19.67 1.68 19.34 1 19 C1.33 18.34 1.66 17.68 2 17 C2.36105638 13.10059112 2.5400274 10.83081139 0.375 7.5 C-1.95457351 5.7330035 -1.95457351 5.7330035 -5 6 C-8.30933292 7.10311097 -9.78127875 8.35460159 -12 11 C-12.99 10.01 -13.98 9.02 -15 8 C-14.1342843 5.33070993 -13.27808762 3.32258164 -11.4375 1.1875 C-7.64045172 -0.66234403 -4.13324008 -0.76647606 0 0 Z " fill="#4480A7" transform="translate(420,263)"/>
<path d="M0 0 C4.7016692 1.49908293 9.28178642 3.10188327 13.8125 5.0625 C27.75306428 10.66017273 42.78866908 9.3200785 57.45703125 8.22265625 C62.30967236 7.91769424 67.14037944 7.90907155 72 8 C72 8.33 72 8.66 72 9 C69.36 9.33 66.72 9.66 64 10 C64 10.66 64 11.32 64 12 C57.86150293 11.93094238 51.72367526 11.84288681 45.58569336 11.73754883 C43.49950613 11.70438339 41.41323098 11.67632557 39.3269043 11.65356445 C36.32042121 11.61986431 33.31473775 11.56754032 30.30859375 11.51171875 C29.38227646 11.50532883 28.45595917 11.4989389 27.50157166 11.49235535 C21.89372477 11.36627109 18.00368074 10.55108294 13 8 C11.83597656 7.47019531 10.67195313 6.94039062 9.47265625 6.39453125 C8.34730469 5.87246094 7.22195313 5.35039062 6.0625 4.8125 C4.34740234 4.01779297 4.34740234 4.01779297 2.59765625 3.20703125 C1.74042969 2.80871094 0.88320313 2.41039062 0 2 C0 1.34 0 0.68 0 0 Z " fill="#377DA9" transform="translate(295,230)"/>
<path d="M0 0 C0.99 0.66 1.98 1.32 3 2 C3 3.32 3 4.64 3 6 C-0.3 6 -3.6 6 -7 6 C-7.33 6.99 -7.66 7.98 -8 9 C-6.02 9.66 -4.04 10.32 -2 11 C-3.32 11.33 -4.64 11.66 -6 12 C-6 12.66 -6 13.32 -6 14 C-5.34 14.66 -4.68 15.32 -4 16 C-7.77910801 15.74233354 -9.57874438 15.37804992 -12.4375 12.8125 C-14 10 -14 10 -13.9375 6.875 C-12.99396912 3.98150531 -12.42330523 2.7708769 -10 1 C-6.47005387 -0.17664871 -3.70544587 -0.19850603 0 0 Z " fill="#6D9AB9" transform="translate(379,263)"/>
<path d="M0 0 C2.86697492 1.28519565 4.97607712 2.57129254 7 5 C7 5.66 7 6.32 7 7 C6.51917969 7.36738281 6.03835938 7.73476563 5.54296875 8.11328125 C3.11006511 11.08819886 3.42528623 14.49777917 3.3125 18.1875 C3.27833984 18.93708984 3.24417969 19.68667969 3.20898438 20.45898438 C3.12665706 22.30546838 3.06164719 24.15270994 3 26 C1.68 26 0.36 26 -1 26 C-1.8607467 20.72792648 -2.13617573 15.52586524 -2.1875 10.1875 C-2.20167969 8.90230469 -2.21585937 7.61710937 -2.23046875 6.29296875 C-2 3 -2 3 0 0 Z " fill="#4A77A1" transform="translate(437,263)"/>
<path d="M0 0 C0.99 0.33 1.98 0.66 3 1 C3 9.25 3 17.5 3 26 C1.68 26.33 0.36 26.66 -1 27 C-2 26 -2 26 -2.11352539 23.59155273 C-2.10828857 22.54942627 -2.10305176 21.5072998 -2.09765625 20.43359375 C-2.09443359 19.30888672 -2.09121094 18.18417969 -2.08789062 17.02539062 C-2.07951172 15.84138672 -2.07113281 14.65738281 -2.0625 13.4375 C-2.05798828 12.24962891 -2.05347656 11.06175781 -2.04882812 9.83789062 C-2.03699675 6.89187774 -2.02051287 3.94596319 -2 1 C-1.34 0.67 -0.68 0.34 0 0 Z " fill="#3E749B" transform="translate(393,263)"/>
<path d="M0 0 C3.67950232 -0.26923188 5.8473905 -0.06887787 9.24829102 1.46606445 C12.98692334 3.13376625 16.36016474 3.50905453 20.46484375 3.73046875 C21.14301651 3.770616 21.82118927 3.81076324 22.51991272 3.85212708 C24.65863605 3.97599184 26.79779809 4.08204723 28.9375 4.1875 C30.39915494 4.2690001 31.86074505 4.35167172 33.32226562 4.43554688 C36.88086292 4.63723258 40.44008088 4.8229734 44 5 C44 5.66 44 6.32 44 7 C39.14365099 7.0496911 34.28745224 7.08585664 29.4309082 7.10986328 C27.78114237 7.11987851 26.13139409 7.1334946 24.48168945 7.15087891 C22.10102995 7.17532542 19.72060653 7.18652803 17.33984375 7.1953125 C16.24566383 7.21079636 16.24566383 7.21079636 15.12937927 7.22659302 C10.38680589 7.22761619 6.50583078 6.49418829 2 5 C2 3.68 2 2.36 2 1 C1.34 0.67 0.68 0.34 0 0 Z " fill="#1476B7" transform="translate(302,237)"/>
<path d="M0 0 C5.16421706 5.16421706 5.3588013 13.42555841 5.5625 20.375 C5.62074951 21.40971436 5.62074951 21.40971436 5.68017578 22.46533203 C5.69140625 24.4609375 5.69140625 24.4609375 5 28 C-2.52151013 34.37625961 -11.40371556 33.67888251 -20.76171875 33.24414062 C-25.17700422 32.76254317 -28.7544318 30.99172488 -32 28 C-32.33 27.34 -32.66 26.68 -33 26 C-32.175 26.309375 -31.35 26.61875 -30.5 26.9375 C-26.60873845 28.11877583 -23.03833047 28.58224168 -19 29 C-19 29.33 -19 29.66 -19 30 C-11.44862068 30.30071865 -4.41143564 29.42625566 3 28 C3.50731502 16.67574735 3.50731502 16.67574735 0.65625 5.83203125 C0 4 0 4 0 0 Z " fill="#57A8C9" transform="translate(369,156)"/>
<path d="M0 0 C5.72976937 -0.34378616 10.11251817 -0.40987104 15 3 C18.46987891 6.65250412 19.30013186 9.5965683 19.5 14.5 C19.32007069 19.57954292 18.37343004 22.22969584 15 26 C14.34 26.33 13.68 26.66 13 27 C13.20496094 26.443125 13.40992188 25.88625 13.62109375 25.3125 C15.43878495 20.16382446 16.50570547 15.43723984 17 10 C15.0509375 10.2784375 15.0509375 10.2784375 13.0625 10.5625 C10.84765625 10.87890625 10.84765625 10.87890625 9 11 C8 10 8 10 7.9375 6.4375 C7.958125 5.303125 7.97875 4.16875 8 3 C5.36 2.67 2.72 2.34 0 2 C0 1.34 0 0.68 0 0 Z " fill="#C8E3F4" transform="translate(234,143)"/>
<path d="M0 0 C0.99 0.66 1.98 1.32 3 2 C3.35644531 4.30664062 3.35644531 4.30664062 3.328125 7.15625 C3.32296875 8.17847656 3.3178125 9.20070313 3.3125 10.25390625 C3.291875 11.32511719 3.27125 12.39632813 3.25 13.5 C3.24484375 14.57121094 3.2396875 15.64242188 3.234375 16.74609375 C3.15421895 24.6915621 3.15421895 24.6915621 2 27 C0.68 26.67 -0.64 26.34 -2 26 C-2 17.75 -2 9.5 -2 1 C-1.34 0.67 -0.68 0.34 0 0 Z " fill="#417599" transform="translate(354,263)"/>
<path d="M0 0 C0.99 0.495 0.99 0.495 2 1 C2.4140625 4.16015625 2.4140625 4.16015625 2.625 8.0625 C2.69976562 9.35285156 2.77453125 10.64320313 2.8515625 11.97265625 C2.90054687 12.97167969 2.94953125 13.97070312 3 15 C3.33 15 3.66 15 4 15 C4 16.98 4 18.96 4 21 C7.96 21 11.92 21 16 21 C16.33 22.32 16.66 23.64 17 25 C15.24440058 26.75559942 12.96417558 26.13221919 10.62890625 26.13671875 C9.92636719 26.13285156 9.22382813 26.12898438 8.5 26.125 C7.79746094 26.12886719 7.09492188 26.13273437 6.37109375 26.13671875 C1.12661378 26.12661378 1.12661378 26.12661378 0 25 C-0.08737645 23.14630389 -0.10698153 21.28932459 -0.09765625 19.43359375 C-0.09443359 18.30888672 -0.09121094 17.18417969 -0.08789062 16.02539062 C-0.07951172 14.84138672 -0.07113281 13.65738281 -0.0625 12.4375 C-0.05798828 11.24962891 -0.05347656 10.06175781 -0.04882812 8.83789062 C-0.03699675 5.89187774 -0.02051287 2.94596319 0 0 Z " fill="#216493" transform="translate(283,264)"/>
<path d="M0 0 C0.8971875 0.75990234 0.8971875 0.75990234 1.8125 1.53515625 C5.7768637 4.18986408 10.39883185 3.40500903 15 3 C18.50829714 2.14284151 18.50829714 2.14284151 21 1 C21 1.66 21 2.32 21 3 C17.90892525 6.00296811 15.55056358 6.43196005 11.3125 6.4375 C6.10188486 6.33558088 2.37893729 5.28779213 -2.16015625 2.77734375 C-4.16968782 1.68960908 -4.16968782 1.68960908 -7 3 C-7.33 3.66 -7.66 4.32 -8 5 C-7.071875 4.938125 -6.14375 4.87625 -5.1875 4.8125 C-2 5 -2 5 -0.375 6.375 C0.07875 6.91125 0.5325 7.4475 1 8 C4.21685727 9.97960448 7.01222554 10.35801611 10.75 10.625 C11.73484375 10.69976562 12.7196875 10.77453125 13.734375 10.8515625 C14.48203125 10.90054688 15.2296875 10.94953125 16 11 C16 11.33 16 11.66 16 12 C7.97013491 12.43469946 2.69523615 12.55276058 -4 8 C-6.31670377 7.16506914 -8.60351381 6.58689458 -11 6 C-11 4.68 -11 3.36 -11 2 C-6.92603082 -0.36858673 -4.54661189 -1.67506754 0 0 Z " fill="#468CB3" transform="translate(309,211)"/>
<path d="M0 0 C-1.25805377 4.50802601 -2.90407165 7.4912812 -6 11 C-8.86724686 10.42655063 -9.8614515 10.1385485 -12 8 C-14.26274788 8.35355436 -15.95088852 8.97544426 -18 10 C-18 8.35 -18 6.7 -18 5 C-21.3 4.67 -24.6 4.34 -28 4 C-28 3.67 -28 3.34 -28 3 C-26.96101563 2.95101562 -25.92203125 2.90203125 -24.8515625 2.8515625 C-17.71496542 2.48077458 -10.80556266 2.02434252 -3.8203125 0.40234375 C-2 0 -2 0 0 0 Z " fill="#1972AD" transform="translate(372,193)"/>
<path d="M0 0 C1.8671875 0.26953125 1.8671875 0.26953125 4 1 C5.1953125 2.63671875 5.1953125 2.63671875 6.125 4.6875 C6.45242188 5.40808594 6.77984375 6.12867188 7.1171875 6.87109375 C8.88568667 11.13583732 10 14.34640953 10 19 C9.01 19 8.02 19 7 19 C5.0625 16.8828125 5.0625 16.8828125 3 14.125 C0.72580802 11.1013584 -0.83178526 9.11214316 -4 7 C-3.67 5.68 -3.34 4.36 -3 3 C-2.34 3.33 -1.68 3.66 -1 4 C-0.67 2.68 -0.34 1.36 0 0 Z " fill="#3B82B3" transform="translate(464,178)"/>
<path d="M0 0 C0.66 0.33 1.32 0.66 2 1 C1.67 2.65 1.34 4.3 1 6 C0.01 6 -0.98 6 -2 6 C-2 6.66 -2 7.32 -2 8 C-4.62329684 9.31164842 -6.63698625 9.13262846 -9.5625 9.125 C-10.55378906 9.12757813 -11.54507812 9.13015625 -12.56640625 9.1328125 C-15 9 -15 9 -16 8 C-16.04080783 6.00041636 -16.04254356 3.99954746 -16 2 C-15.26394531 2.02320313 -14.52789062 2.04640625 -13.76953125 2.0703125 C-12.30580078 2.09738281 -12.30580078 2.09738281 -10.8125 2.125 C-9.36810547 2.15980469 -9.36810547 2.15980469 -7.89453125 2.1953125 C-4.86989467 1.99122096 -2.77853992 1.14212867 0 0 Z " fill="#157CBD" transform="translate(327,196)"/>
<path d="M0 0 C0 3.20395416 -0.74335022 5.09399739 -2 8 C-1.34 8 -0.68 8 0 8 C0.33 10.31 0.66 12.62 1 15 C0.01 15.495 0.01 15.495 -1 16 C-1 15.34 -1 14.68 -1 14 C-2.98 14.99 -4.96 15.98 -7 17 C-7.66 16.01 -8.32 15.02 -9 14 C-9.99 14 -10.98 14 -12 14 C-12 14.99 -12 15.98 -12 17 C-13.65 17.33 -15.3 17.66 -17 18 C-14.25925857 13.31790005 -11.11666622 10.16530336 -6.97265625 6.6796875 C-4.50289158 4.57671957 -2.25695456 2.32748439 0 0 Z " fill="#2B7FB6" transform="translate(224,134)"/>
<path d="M0 0 C3 1 3 1 4.421875 3.80078125 C4.86015625 4.95964844 5.2984375 6.11851562 5.75 7.3125 C6.19859375 8.46363281 6.6471875 9.61476563 7.109375 10.80078125 C8.21617 14.77650541 7.78173987 16.43652027 6 20 C6.66 20 7.32 20 8 20 C8.33 21.98 8.66 23.96 9 26 C9.99 26.33 10.98 26.66 12 27 C9.75 27.0625 9.75 27.0625 7 26 C5.18752292 23.20689167 4.15457221 20.110452 3 17 C2.55140625 15.88367188 2.1028125 14.76734375 1.640625 13.6171875 C-2 4.4747191 -2 4.4747191 -2 1 C-1.34 0.67 -0.68 0.34 0 0 Z " fill="#3B79A2" transform="translate(323,263)"/>
<path d="M0 0 C2 2 2 2 2.125 5.125 C2.08375 6.07375 2.0425 7.0225 2 8 C4.64 8 7.28 8 10 8 C9.67 8.66 9.34 9.32 9 10 C9.78375 10.144375 10.5675 10.28875 11.375 10.4375 C14 11 14 11 16 12 C16.125 14.875 16.125 14.875 16 18 C15.34 18.66 14.68 19.32 14 20 C13.67 19.67 13.34 19.34 13 19 C13 17.02 13 15.04 13 13 C8.71 12.67 4.42 12.34 0 12 C0 15.3 0 18.6 0 22 C1.32 22.33 2.64 22.66 4 23 C2.35 23 0.7 23 -1 23 C-1.02887512 19.35418313 -1.04675585 15.70839537 -1.0625 12.0625 C-1.07087891 11.02158203 -1.07925781 9.98066406 -1.08789062 8.90820312 C-1.09272461 7.42416992 -1.09272461 7.42416992 -1.09765625 5.91015625 C-1.10289307 4.99371338 -1.10812988 4.07727051 -1.11352539 3.13305664 C-1 1 -1 1 0 0 Z " fill="#146094" transform="translate(204,266)"/>
<path d="M0 0 C1.20272819 2.40545638 1.10071472 3.94996953 1.0625 6.625 C1.05347656 7.44226563 1.04445312 8.25953125 1.03515625 9.1015625 C1.02355469 9.72804687 1.01195312 10.35453125 1 11 C1.66 11.33 2.32 11.66 3 12 C2.01 12.33 1.02 12.66 0 13 C-1.42258812 9.17679443 -2.24042276 6.08718695 -2 2 C-4.97 2.66 -7.94 3.32 -11 4 C-11.185625 5.2065625 -11.185625 5.2065625 -11.375 6.4375 C-11.58125 7.283125 -11.7875 8.12875 -12 9 C-12.99 9.495 -12.99 9.495 -14 10 C-14.46651207 12.12576782 -14.46651207 12.12576782 -14.625 14.5625 C-14.69976562 15.38878906 -14.77453125 16.21507812 -14.8515625 17.06640625 C-14.90054688 17.70449219 -14.94953125 18.34257812 -15 19 C-14.01 19.33 -13.02 19.66 -12 20 C-12 20.66 -12 21.32 -12 22 C-10.68 21.67 -9.36 21.34 -8 21 C-8.66 21.99 -9.32 22.98 -10 24 C-13.39564335 22.5949062 -15.06065964 21.11933337 -17 18 C-17.74700572 13.4959949 -17.52328795 9.29444915 -15.8125 5.0625 C-11.09371028 -0.30715726 -6.76063431 -0.39768437 0 0 Z " fill="#2677AD" transform="translate(242,145)"/>
<path d="M0 0 C1.32 0.33 2.64 0.66 4 1 C4 9.25 4 17.5 4 26 C-0.82687735 19.56416353 -2.17333855 16.82672089 -1.625 8.9375 C-1.58117187 8.19177734 -1.53734375 7.44605469 -1.4921875 6.67773438 C-1.1293504 1.1293504 -1.1293504 1.1293504 0 0 Z " fill="#5388B1" transform="translate(453,263)"/>
<path d="M0 0 C2.375 -0.125 2.375 -0.125 5 0 C5.66 0.66 6.32 1.32 7 2 C9.32275177 2.40047444 11.65739357 2.7397104 14 3 C14.07089844 3.62390625 14.14179688 4.2478125 14.21484375 4.890625 C14.80004532 7.19229321 14.80004532 7.19229321 17.06640625 8.046875 C18.30197266 8.39492187 18.30197266 8.39492187 19.5625 8.75 C20.38878906 8.99234375 21.21507812 9.2346875 22.06640625 9.484375 C22.70449219 9.65453125 23.34257812 9.8246875 24 10 C24 10.66 24 11.32 24 12 C24.86625 12.061875 24.86625 12.061875 25.75 12.125 C29.13312465 13.44065958 30.19222685 15.96552364 32 19 C29.93302547 18.04033325 28.12405924 17.09924739 26.33984375 15.671875 C23.17649521 13.41158589 19.79683269 11.77228407 16.3125 10.0625 C15.60222656 9.71058594 14.89195312 9.35867187 14.16015625 8.99609375 C9.16089366 6.53295343 4.12318263 4.1956497 -1 2 C-0.67 1.34 -0.34 0.68 0 0 Z " fill="#4583B0" transform="translate(374,114)"/>
<path d="M0 0 C4.62 0 9.24 0 14 0 C14.66 1.32 15.32 2.64 16 4 C14 6 14 6 11.3984375 6.1953125 C10.40070313 6.17210937 9.40296875 6.14890625 8.375 6.125 C6.87066406 6.09792969 6.87066406 6.09792969 5.3359375 6.0703125 C4.56507813 6.04710937 3.79421875 6.02390625 3 6 C3 7.32 3 8.64 3 10 C5.97 10 8.94 10 12 10 C12 10.33 12 10.66 12 11 C8.7 11 5.4 11 2 11 C2 8.36 2 5.72 2 3 C1.01 3.33 0.02 3.66 -1 4 C-0.67 2.68 -0.34 1.36 0 0 Z " fill="#6793B3" transform="translate(285,263)"/>
<path d="M0 0 C0.33 0.66 0.66 1.32 1 2 C0.175 2.61875 -0.65 3.2375 -1.5 3.875 C-2.325 4.57625 -3.15 5.2775 -4 6 C-4 6.66 -4 7.32 -4 8 C4.25 8 12.5 8 21 8 C21.495 9.98 21.495 9.98 22 12 C21.22269531 11.83757812 20.44539063 11.67515625 19.64453125 11.5078125 C14.96991256 10.85647227 10.40073098 10.85498628 5.6875 10.875 C4.33881836 10.86919922 4.33881836 10.86919922 2.96289062 10.86328125 C-2.76870676 10.87156989 -8.31484278 11.26979632 -14 12 C-12.75030384 8.25091151 -11.36230195 7.60977652 -8.125 5.4375 C-7.24070312 4.83808594 -6.35640625 4.23867187 -5.4453125 3.62109375 C-4.63835937 3.08613281 -3.83140625 2.55117187 -3 2 C-2.01 1.34 -1.02 0.68 0 0 Z " fill="#4381A4" transform="translate(411,219)"/>
<path d="M0 0 C0.99 0.33 1.98 0.66 3 1 C3 1.66 3 2.32 3 3 C2.360625 3.226875 1.72125 3.45375 1.0625 3.6875 C0.381875 4.120625 -0.29875 4.55375 -1 5 C-1.33 6.65 -1.66 8.3 -2 10 C2.29 10.66 6.58 11.32 11 12 C11 12.33 11 12.66 11 13 C4.4 13 -2.2 13 -9 13 C-9 9 -9 9 -7.625 7.25 C-6 6 -6 6 -4 6 C-3.8453125 5.071875 -3.8453125 5.071875 -3.6875 4.125 C-3 2 -3 2 0 0 Z " fill="#0E69A3" transform="translate(416,215)"/>
<path d="M0 0 C0.66 0.99 1.32 1.98 2 3 C1.67 3.66 1.34 4.32 1 5 C2.65 5 4.3 5 6 5 C6.20625 5.639375 6.4125 6.27875 6.625 6.9375 C7.89538209 9.34925077 7.89538209 9.34925077 11.125 9.75 C12.07375 9.8325 13.0225 9.915 14 10 C14 10.66 14 11.32 14 12 C16.31 12 18.62 12 21 12 C21 12.33 21 12.66 21 13 C15.32723489 13.29341888 12.00932754 13.00559652 7 10 C7 9.34 7 8.68 7 8 C6.34 8 5.68 8 5 8 C5 7.34 5 6.68 5 6 C4.39414062 6.5053125 3.78828125 7.010625 3.1640625 7.53125 C-2.40825241 11.85193725 -6.05855634 13.7817396 -13.1640625 13.24609375 C-13.76992188 13.16488281 -14.37578125 13.08367187 -15 13 C-15 12.67 -15 12.34 -15 12 C-9.555 11.505 -9.555 11.505 -4 11 C-4 10.34 -4 9.68 -4 9 C-3.01 9 -2.02 9 -1 9 C-1 7.35 -1 5.7 -1 4 C-4.63 4 -8.26 4 -12 4 C-12 3.67 -12 3.34 -12 3 C-11.38511719 2.86722656 -10.77023437 2.73445312 -10.13671875 2.59765625 C-9.32847656 2.42105469 -8.52023437 2.24445313 -7.6875 2.0625 C-6.88699219 1.88847656 -6.08648437 1.71445313 -5.26171875 1.53515625 C-2.854599 1.00113841 -2.854599 1.00113841 0 0 Z " fill="#488EB6" transform="translate(329,193)"/>
<path d="M0 0 C-0.125 1.875 -0.125 1.875 -1 4 C-8.06664313 7.34735727 -17.37448723 8.9892642 -25 7 C-25.33 6.34 -25.66 5.68 -26 5 C-23.36 5.33 -20.72 5.66 -18 6 C-18 5.34 -18 4.68 -18 4 C-15.29120665 2.64560332 -12.99066732 2.93498549 -10 3 C-10 2.34 -10 1.68 -10 1 C-6.56484998 0.37542727 -3.50935186 0 0 0 Z " fill="#22699C" transform="translate(377,236)"/>
<path d="M0 0 C1.11375 0.4640625 1.11375 0.4640625 2.25 0.9375 C7.44702225 2.40998964 12.62487263 2.66949055 18 3 C17.67 3.66 17.34 4.32 17 5 C13.37 5 9.74 5 6 5 C6.33 6.32 6.66 7.64 7 9 C10.91405938 11.30238787 14.54719212 11.17461992 19 11 C16.53942818 13.46057182 15.59278095 13.37747115 12.1875 13.5 C7.59382564 13.42045586 7.59382564 13.42045586 5.30078125 11.796875 C2.26992792 8.19261699 0 4.71330544 0 0 Z " fill="#468FB5" transform="translate(280,193)"/>
<path d="M0 0 C9.00292468 2.03927252 16.49959442 5.54452696 22.66015625 12.5 C21.67015625 12.5 20.68015625 12.5 19.66015625 12.5 C19.66015625 11.84 19.66015625 11.18 19.66015625 10.5 C18.93699219 10.21125 18.21382813 9.9225 17.46875 9.625 C15.70947349 8.92031066 13.95145062 8.21247442 12.1953125 7.5 C11.37933594 7.17 10.56335938 6.84 9.72265625 6.5 C8.90925781 6.17 8.09585937 5.84 7.2578125 5.5 C6.40058594 5.17 5.54335938 4.84 4.66015625 4.5 C3.77972656 4.14164063 2.89929688 3.78328125 1.9921875 3.4140625 C-2.57058924 2.16237462 -7.00311122 2.03631467 -11.71484375 1.875 C-12.64167969 1.83632812 -13.56851562 1.79765625 -14.5234375 1.7578125 C-16.79538145 1.66412409 -19.06732971 1.57840652 -21.33984375 1.5 C-15.52760268 -2.37482738 -6.76308419 -1.01248512 0 0 Z " fill="#5FABC8" transform="translate(335.33984375,129.5)"/>
<path d="M0 0 C2.36964295 3.55446443 2.19177607 4.83081819 1.875 9 C1.81054688 10.051875 1.74609375 11.10375 1.6796875 12.1875 C1 15 1 15 -0.76171875 16.88671875 C-3.40539731 18.2016374 -4.78604054 18.22014306 -7.6875 17.8125 C-8.47511719 17.71582031 -9.26273437 17.61914062 -10.07421875 17.51953125 C-10.70972656 17.34808594 -11.34523438 17.17664063 -12 17 C-12.33 16.34 -12.66 15.68 -13 15 C-11.01432292 14.51171875 -9.02864583 14.0234375 -7.04296875 13.53515625 C-5.34316798 13.08989295 -3.66698046 12.55566015 -2 12 C-1.93941406 11.21753906 -1.87882812 10.43507813 -1.81640625 9.62890625 C-1.73261719 8.61699219 -1.64882813 7.60507812 -1.5625 6.5625 C-1.48128906 5.55316406 -1.40007812 4.54382813 -1.31640625 3.50390625 C-1 1 -1 1 0 0 Z " fill="#346D99" transform="translate(425,271)"/>
<path d="M0 0 C0.33 0 0.66 0 1 0 C1.5916152 9.12073433 0.1641729 16.45980519 -3 25 C-3.40863281 26.11632812 -3.81726563 27.23265625 -4.23828125 28.3828125 C-7.70356947 37.2874231 -7.70356947 37.2874231 -12 40 C-10.97754423 36.59181411 -9.77533487 33.49953569 -8.08984375 30.37890625 C-5.81238136 25.87680119 -4.5240305 21.31868237 -3.3125 16.4375 C-3.10044922 15.62603516 -2.88839844 14.81457031 -2.66992188 13.97851562 C-1.48108725 9.33193486 -0.58151352 4.76074255 0 0 Z " fill="#EEEAEB" transform="translate(393,172)"/>
<path d="M0 0 C1.32 0.66 2.64 1.32 4 2 C4 7.61 4 13.22 4 19 C3.67 19 3.34 19 3 19 C1.87137825 13.63904667 1.90311779 8.44693314 2 3 C1.34 3 0.68 3 0 3 C0 8.28 0 13.56 0 19 C-0.66 19 -1.32 19 -2 19 C-2.05380578 16.20807795 -2.09357669 13.4171859 -2.125 10.625 C-2.14175781 9.8309375 -2.15851563 9.036875 -2.17578125 8.21875 C-2.19335473 6.14507985 -2.10335168 4.07116759 -2 2 C-1.34 1.34 -0.68 0.68 0 0 Z " fill="#7096BE" transform="translate(254,263)"/>
<path d="M0 0 C1.65 0 3.3 0 5 0 C5.33 0.99 5.66 1.98 6 3 C4.26734767 5.12721673 3.30500974 5.93079195 0.58984375 6.546875 C-0.28542969 6.61390625 -1.16070312 6.6809375 -2.0625 6.75 C-3.37927734 6.86601562 -3.37927734 6.86601562 -4.72265625 6.984375 C-7 7 -7 7 -9 6 C-9 4.68 -9 3.36 -9 2 C-6.03 2 -3.06 2 0 2 C0 1.34 0 0.68 0 0 Z " fill="#F9FDFC" transform="translate(294,188)"/>
<path d="M0 0 C0.99 0.33 1.98 0.66 3 1 C1.08166043 7.96660161 -1.79648099 14.09868083 -6 20 C-6.66 20.33 -7.32 20.66 -8 21 C-8 20.01 -8 19.02 -8 18 C-7.34 18 -6.68 18 -6 18 C-6 17.01 -6 16.02 -6 15 C-5.34 15 -4.68 15 -4 15 C-3.67 12.36 -3.34 9.72 -3 7 C-4.32 7.33 -5.64 7.66 -7 8 C-6.02133662 6.85373678 -5.04205413 5.70800212 -4.0625 4.5625 C-3.51722656 3.92441406 -2.97195313 3.28632813 -2.41015625 2.62890625 C-1.63204305 1.73008851 -0.84063472 0.84063472 0 0 Z " fill="#427BA7" transform="translate(472,139)"/>
<path d="M0 0 C1.27302979 0.00447144 1.27302979 0.00447144 2.57177734 0.0090332 C3.51408203 0.00967773 4.45638672 0.01032227 5.42724609 0.01098633 C6.41080078 0.02709961 7.39435547 0.04321289 8.40771484 0.05981445 C9.84824219 0.05498047 9.84824219 0.05498047 11.31787109 0.05004883 C17.42629965 0.09563412 22.86926966 0.84213431 28.78271484 2.37231445 C28.78271484 2.70231445 28.78271484 3.03231445 28.78271484 3.37231445 C17.56271484 3.37231445 6.34271484 3.37231445 -5.21728516 3.37231445 C-2.21728516 0.37231445 -2.21728516 0.37231445 0 0 Z " fill="#3176A3" transform="translate(327.21728515625,107.627685546875)"/>
<path d="M0 0 C0.99 0.33 1.98 0.66 3 1 C2.43174347 6.54050113 0.37113483 11.03715966 -2 16 C-3.40625584 13.3749891 -4.67086945 10.97949763 -5 8 C-4.00390625 5.859375 -4.00390625 5.859375 -2.5625 3.75 C-2.08941406 3.04359375 -1.61632812 2.3371875 -1.12890625 1.609375 C-0.75636719 1.07828125 -0.38382812 0.5471875 0 0 Z " fill="#437EA5" transform="translate(342,263)"/>
<path d="M0 0 C1.20757257 3.7453618 1.06377038 7.27757873 1 11.1875 C0.93154977 20.51692906 1.70654885 28.23817713 5 37 C4.34 37.66 3.68 38.32 3 39 C-2.8271927 27.18430822 -4.22474037 12.67422111 0 0 Z " fill="#4389AF" transform="translate(266,165)"/>
<path d="M0 0 C2.91769527 0.23034436 4.56807137 0.63821362 6.828125 2.53125 C10.77434458 5.19991648 15.40855394 4.40415326 20 4 C23.50829714 3.14284151 23.50829714 3.14284151 26 2 C26 2.66 26 3.32 26 4 C22.90892525 7.00296811 20.55056358 7.43196005 16.3125 7.4375 C10.37018551 7.30674002 6.1801583 5.73855502 1 3 C0.01 2.67 -0.98 2.34 -2 2 C-1.34 1.34 -0.68 0.68 0 0 Z " fill="#2E81AE" transform="translate(304,210)"/>
<path d="M0 0 C0.99 0 1.98 0 3 0 C3.05380578 2.79192205 3.09357669 5.5828141 3.125 8.375 C3.14175781 9.1690625 3.15851563 9.963125 3.17578125 10.78125 C3.19335473 12.85492015 3.10335168 14.92883241 3 17 C2.34 17.66 1.68 18.32 1 19 C0 18 0 18 -0.11352539 16.23413086 C-0.10828857 15.48526611 -0.10305176 14.73640137 -0.09765625 13.96484375 C-0.09443359 13.15595703 -0.09121094 12.34707031 -0.08789062 11.51367188 C-0.07951172 10.66353516 -0.07113281 9.81339844 -0.0625 8.9375 C-0.05798828 8.08349609 -0.05347656 7.22949219 -0.04882812 6.34960938 C-0.03700373 4.23304337 -0.01906769 2.11651315 0 0 Z " fill="#13598D" transform="translate(270,265)"/>
<path d="M0 0 C0 0.66 0 1.32 0 2 C-8.78818772 5.52307525 -16.43457564 7.80728999 -26 8 C-22.68640634 5.79093756 -19.37244279 4.65650407 -15.625 3.4375 C-14.965 3.21642578 -14.305 2.99535156 -13.625 2.76757812 C-9.04643057 1.25810952 -4.83248809 0 0 0 Z " fill="#548FB3" transform="translate(304,95)"/>
<path d="M0 0 C0.66 0.33 1.32 0.66 2 1 C-2.14518318 9.57259159 -2.14518318 9.57259159 -5.75 11.375 C-6.4925 11.58125 -7.235 11.7875 -8 12 C-8.33 12.99 -8.66 13.98 -9 15 C-9.99 15 -10.98 15 -12 15 C-10.57641609 10.45925821 -8.27867927 7.96026853 -4.875 4.6875 C-3.96492188 3.80449219 -3.05484375 2.92148438 -2.1171875 2.01171875 C-1.41851562 1.34785156 -0.71984375 0.68398437 0 0 Z " fill="#55ADCC" transform="translate(296,138)"/>
<path d="M0 0 C0.66 0 1.32 0 2 0 C2 3.63 2 7.26 2 11 C-0.64 10.67 -3.28 10.34 -6 10 C-5.67 9.34 -5.34 8.68 -5 8 C-5.99 7.34 -6.98 6.68 -8 6 C-6.02 6 -4.04 6 -2 6 C-1.855625 5.195625 -1.71125 4.39125 -1.5625 3.5625 C-1 1 -1 1 0 0 Z " fill="#29709B" transform="translate(218,267)"/>
<path d="M0 0 C0.66 0.33 1.32 0.66 2 1 C1.5422281 2.68765239 1.0837511 4.37511352 0.625 6.0625 C0.36976563 7.00222656 0.11453125 7.94195312 -0.1484375 8.91015625 C-0.74025801 11.05754167 -1.38217662 13.19149181 -2.0625 15.3125 C-3.14437775 19.56788581 -3.44525532 23.56745737 -3.625 27.9375 C-3.66367187 28.71673828 -3.70234375 29.49597656 -3.7421875 30.29882812 C-3.83544127 32.19887379 -3.91875962 34.09940278 -4 36 C-4.33 36 -4.66 36 -5 36 C-5.2526454 23.11508452 -4.92082441 12.07838719 0 0 Z " fill="#2A78A6" transform="translate(269,149)"/>
<path d="M0 0 C1.17219543 0.78345715 2.33763668 1.57702836 3.5 2.375 C4.47453125 3.03628906 4.47453125 3.03628906 5.46875 3.7109375 C5.9740625 4.13632813 6.479375 4.56171875 7 5 C7 5.66 7 6.32 7 7 C7.61875 7.2475 8.2375 7.495 8.875 7.75 C11.38710296 9.22770762 11.76107344 10.43955177 13 13 C13.99 13.33 14.98 13.66 16 14 C15.01 14.33 14.02 14.66 13 15 C9.24404454 12.43013574 6.20795838 9.20795838 3 6 C2.01 5.34 1.02 4.68 0 4 C0 2.68 0 1.36 0 0 Z " fill="#4E8FB4" transform="translate(413,120)"/>
<path d="M0 0 C3.63 0 7.26 0 11 0 C11.33 1.32 11.66 2.64 12 4 C11 5 11 5 7.62109375 5.09765625 C6.22652923 5.09098369 4.83198257 5.07902532 3.4375 5.0625 C2.72658203 5.05798828 2.01566406 5.05347656 1.28320312 5.04882812 C-0.47790013 5.03700864 -2.23896036 5.01907263 -4 5 C-0.99112219 3.41841038 1.63672037 2.56054661 5 2 C3.35 1.67 1.7 1.34 0 1 C0 0.67 0 0.34 0 0 Z " fill="#4D82A8" transform="translate(288,285)"/>
<path d="M0 0 C1.32 0.66 2.64 1.32 4 2 C-0.39334899 6.39334899 -7.43352869 7.19710157 -13.4375 7.25 C-16.34023773 7.19408852 -18.20680583 6.93106472 -21 6 C-20.67 5.34 -20.34 4.68 -20 4 C-19.13117188 4.03480469 -18.26234375 4.06960937 -17.3671875 4.10546875 C-8.67892728 4.44258772 -8.67892728 4.44258772 -1 1 C-0.67 0.67 -0.34 0.34 0 0 Z " fill="#CCEBF6" transform="translate(332,218)"/>
<path d="M0 0 C2.6875 0.875 2.6875 0.875 5 2 C5 2.66 5 3.32 5 4 C3.35 3.67 1.7 3.34 0 3 C0 3.99 0 4.98 0 6 C-2.31 6 -4.62 6 -7 6 C-4.74259377 3.66475218 -2.7194239 1.81294927 0 0 Z M-1 6 C-0.01 6.66 0.98 7.32 2 8 C2 8.66 2 9.32 2 10 C-1.465 11.485 -1.465 11.485 -5 13 C-5 11.68 -5 10.36 -5 9 C-3.68 9 -2.36 9 -1 9 C-1 8.01 -1 7.02 -1 6 Z " fill="#3D89B6" transform="translate(305,190)"/>
<path d="M0 0 C-0.33 2.64 -0.66 5.28 -1 8 C-1.66 8 -2.32 8 -3 8 C-3 8.99 -3 9.98 -3 11 C-3.66 11 -4.32 11 -5 11 C-5 11.66 -5 12.32 -5 13 C-5.66 13 -6.32 13 -7 13 C-8.21744727 9.34765818 -7.64202228 8.37046678 -6 5 C-5.34 4.34 -4.68 3.68 -4 3 C-4 2.34 -4 1.68 -4 1 C-2 0 -2 0 0 0 Z " fill="#0F6DAC" transform="translate(469,146)"/>
<path d="M0 0 C3.0625 0.3125 3.0625 0.3125 4.9375 1.8125 C5.30875 2.3075 5.68 2.8025 6.0625 3.3125 C3.4225 3.3125 0.7825 3.3125 -1.9375 3.3125 C-1.9375 4.6325 -1.9375 5.9525 -1.9375 7.3125 C-4.5775 7.3125 -7.2175 7.3125 -9.9375 7.3125 C-2.9375 0.3125 -2.9375 0.3125 0 0 Z " fill="#F9FCF9" transform="translate(330.9375,185.6875)"/>
<path d="M0 0 C-1 3 -1 3 -2.828125 4.0546875 C-3.54484375 4.36664063 -4.2615625 4.67859375 -5 5 C-5.61359375 5.35320312 -6.2271875 5.70640625 -6.859375 6.0703125 C-11.8296222 8.84297106 -15.31390217 9.58821702 -21 9 C-21.66 8.34 -22.32 7.68 -23 7 C-22.27554687 6.97421875 -21.55109375 6.9484375 -20.8046875 6.921875 C-14.69320099 6.56333446 -10.90521469 5.94809963 -6 2 C-2.4 0 -2.4 0 0 0 Z " fill="#65AFCD" transform="translate(336,179)"/>
<path d="M0 0 C0.99 0 1.98 0 3 0 C2.6875 1.875 2.6875 1.875 2 4 C1.01 4.66 0.02 5.32 -1 6 C0.01160848 10.39314793 0.01160848 10.39314793 3.125 13.375 C3.74375 13.58125 4.3625 13.7875 5 14 C4.67 14.66 4.34 15.32 4 16 C1.12160009 14.7096828 -1.09054786 13.54593619 -3 11 C-3.6875 7.8125 -3.6875 7.8125 -4 5 C-2.68 4.34 -1.36 3.68 0 3 C0 2.01 0 1.02 0 0 Z " fill="#4985AE" transform="translate(460,160)"/>
<path d="M0 0 C0.66 0.33 1.32 0.66 2 1 C1.67 1.99 1.34 2.98 1 4 C2.98 4.66 4.96 5.32 7 6 C5.68 6.33 4.36 6.66 3 7 C3 7.66 3 8.32 3 9 C3.66 9.66 4.32 10.32 5 11 C-0.53846154 10.38461538 -0.53846154 10.38461538 -2.875 8.4375 C-3.24625 7.963125 -3.6175 7.48875 -4 7 C-3.67 6.01 -3.34 5.02 -3 4 C-2.34 4 -1.68 4 -1 4 C-0.67 2.68 -0.34 1.36 0 0 Z " fill="#548BB4" transform="translate(370,268)"/>
<path d="M0 0 C0.80050781 0.03480469 1.60101563 0.06960937 2.42578125 0.10546875 C3.63814453 0.14607422 3.63814453 0.14607422 4.875 0.1875 C5.48988281 0.22230469 6.10476562 0.25710937 6.73828125 0.29296875 C7.94100944 2.69842513 7.83899597 4.24293828 7.80078125 6.91796875 C7.79175781 7.73523438 7.78273437 8.5525 7.7734375 9.39453125 C7.76183594 10.02101562 7.75023437 10.6475 7.73828125 11.29296875 C8.39828125 11.62296875 9.05828125 11.95296875 9.73828125 12.29296875 C8.74828125 12.62296875 7.75828125 12.95296875 6.73828125 13.29296875 C5.22768397 9.23323855 4.73828125 6.74686208 4.73828125 2.29296875 C1.43828125 2.62296875 -1.86171875 2.95296875 -5.26171875 3.29296875 C-2.26171875 0.29296875 -2.26171875 0.29296875 0 0 Z " fill="#337CAF" transform="translate(235.26171875,144.70703125)"/>
<path d="M0 0 C0.7425 0.763125 1.485 1.52625 2.25 2.3125 C5.37715949 5.50338284 5.37715949 5.50338284 9 8 C12.19235272 7.77426109 12.19235272 7.77426109 15 7 C14.67 7.66 14.34 8.32 14 9 C11.93359375 9.4140625 11.93359375 9.4140625 9.4375 9.625 C8.61121094 9.69976562 7.78492188 9.77453125 6.93359375 9.8515625 C5.97646484 9.92503906 5.97646484 9.92503906 5 10 C5 9.34 5 8.68 5 8 C4.34 8 3.68 8 3 8 C3 8.66 3 9.32 3 10 C2.34 10 1.68 10 1 10 C0 2.25 0 2.25 0 0 Z " fill="#3A7FB0" transform="translate(439,148)"/>
<path d="M0 0 C2.475 0.495 2.475 0.495 5 1 C5.33 1.99 5.66 2.98 6 4 C6.845625 4.061875 7.69125 4.12375 8.5625 4.1875 C12.76787691 5.18149818 15.86388926 7.02162264 19 10 C19 10.66 19 11.32 19 12 C15.43061069 10.65908452 12.21113509 9.07804969 8.9375 7.125 C8.10089844 6.63257813 7.26429688 6.14015625 6.40234375 5.6328125 C3.95481783 3.96929082 2.01954671 2.15480504 0 0 Z " fill="#4A85B0" transform="translate(235,216)"/>
<path d="M0 0 C1.37494222 2.26461071 2.07991957 3.45654694 1.6875 6.125 C1 8 1 8 0 10 C0.66 10 1.32 10 2 10 C2.33 11.98 2.66 13.96 3 16 C3.99 16.33 4.98 16.66 6 17 C3.75 17.0625 3.75 17.0625 1 16 C-1.6529206 11.76754444 -3.36068868 6.95466276 -4 2 C-3.67 2.66 -3.34 3.32 -3 4 C-2.01 4 -1.02 4 0 4 C0 2.68 0 1.36 0 0 Z " fill="#538AAF" transform="translate(329,273)"/>
<path d="M0 0 C2.31 0.33 4.62 0.66 7 1 C7.66 2.65 8.32 4.3 9 6 C8.34 6.66 7.68 7.32 7 8 C7 8.99 7 9.98 7 11 C6.401875 10.21625 5.80375 9.4325 5.1875 8.625 C3.08914751 5.85425677 3.08914751 5.85425677 0 4 C0 2.68 0 1.36 0 0 Z " fill="#126EB0" transform="translate(460,181)"/>
<path d="M0 0 C0.33 0 0.66 0 1 0 C1 4.29 1 8.58 1 13 C-2.73151108 11.75616297 -3.74534148 10.15652193 -6 7 C-6.33 6.01 -6.66 5.02 -7 4 C-5.68 4.33 -4.36 4.66 -3 5 C-2.690625 4.360625 -2.38125 3.72125 -2.0625 3.0625 C-1 1 -1 1 0 0 Z " fill="#1C608F" transform="translate(455,276)"/>
<path d="M0 0 C3 1 3 1 4.0625 2.9375 C4.371875 3.618125 4.68125 4.29875 5 5 C5.66 5.66 6.32 6.32 7 7 C5.33333333 7 3.66666667 7 2 7 C1.34 7.185625 0.68 7.37125 0 7.5625 C-2 8 -2 8 -4 7 C-3.34 5.35 -2.68 3.7 -2 2 C-1.34 2 -0.68 2 0 2 C0 1.34 0 0.68 0 0 Z " fill="#1276B6" transform="translate(430,142)"/>
<path d="M0 0 C-0.99 0.495 -0.99 0.495 -2 1 C-2 1.66 -2 2.32 -2 3 C-3.65 3.33 -5.3 3.66 -7 4 C-7 4.66 -7 5.32 -7 6 C-7.99 6.33 -8.98 6.66 -10 7 C-10.99 6.34 -11.98 5.68 -13 5 C-13 4.34 -13 3.68 -13 3 C-8.44573816 0.33409063 -5.26053037 -0.31563182 0 0 Z " fill="#2D7AB0" transform="translate(282,103)"/>
<path d="M0 0 C0 0.33 0 0.66 0 1 C-2.64 1.33 -5.28 1.66 -8 2 C-8 2.66 -8 3.32 -8 4 C-9.65 4 -11.3 4 -13 4 C-13 3.34 -13 2.68 -13 2 C-17.29 2 -21.58 2 -26 2 C-26 1.67 -26 1.34 -26 1 C-17.31238511 0.34344611 -8.71782637 -0.16311941 0 0 Z " fill="#6A9BBE" transform="translate(367,238)"/>
<path d="M0 0 C2.86724686 0.57344937 3.8614515 0.8614515 6 3 C8.60280568 2.67958603 8.60280568 2.67958603 11 2 C10.67 2.99 10.34 3.98 10 5 C6.9375 6.1875 6.9375 6.1875 4 7 C3.4121875 6.2265625 3.4121875 6.2265625 2.8125 5.4375 C1.9153125 4.7259375 1.9153125 4.7259375 1 4 C-1.65466049 4.23043864 -1.65466049 4.23043864 -4 5 C-2.68 3.35 -1.36 1.7 0 0 Z " fill="#CEE8F3" transform="translate(357,200)"/>
<path d="M0 0 C0.33 0.99 0.66 1.98 1 3 C-1.54266815 5.91658994 -3.26370711 7.76990847 -7 8.9375 C-10.21582016 9.00449625 -12.1445402 8.4277299 -15 7 C-15 6.67 -15 6.34 -15 6 C-13.0085944 5.61866701 -11.00720923 5.28674418 -9 5 C-8.67 5.33 -8.34 5.66 -8 6 C-6.00016466 5.20882096 -6.00016466 5.20882096 -4 4 C-3.67 3.01 -3.34 2.02 -3 1 C-2.01 0.67 -1.02 0.34 0 0 Z " fill="#3F75A6" transform="translate(272,282)"/>
<path d="M0 0 C0.99 0 1.98 0 3 0 C2.67 6.27 2.34 12.54 2 19 C1.34 19 0.68 19 0 19 C0 12.73 0 6.46 0 0 Z " fill="#13659D" transform="translate(437,267)"/>
<path d="M0 0 C1.32 0 2.64 0 4 0 C4 1.32 4 2.64 4 4 C6.47266765 3.65555119 6.47266765 3.65555119 9 3 C9.33 2.34 9.66 1.68 10 1 C10.99 1 11.98 1 13 1 C13 2.32 13 3.64 13 5 C11.40012764 5.27615058 9.794667 5.52007625 8.1875 5.75 C7.29417969 5.88921875 6.40085937 6.0284375 5.48046875 6.171875 C3 6 3 6 1.17578125 4.140625 C0 2 0 2 0 0 Z " fill="#137EC0" transform="translate(340,198)"/>
<path d="M0 0 C0.66 0 1.32 0 2 0 C2 0.66 2 1.32 2 2 C3.32 2.33 4.64 2.66 6 3 C5.01 3 4.02 3 3 3 C3 3.66 3 4.32 3 5 C0.35541621 6.32229189 -1.67761301 6.09677194 -4.625 6.0625 C-5.62789063 6.05347656 -6.63078125 6.04445312 -7.6640625 6.03515625 C-8.43492187 6.02355469 -9.20578125 6.01195312 -10 6 C-10.33 5.34 -10.66 4.68 -11 4 C-9.9275 4.0825 -8.855 4.165 -7.75 4.25 C-3.96533931 4.37585669 -3.96533931 4.37585669 -1.6875 2 C-1.130625 1.34 -0.57375 0.68 0 0 Z " fill="#227FB6" transform="translate(322,199)"/>
<path d="M0 0 C0.66 0 1.32 0 2 0 C2.12375 1.0725 2.2475 2.145 2.375 3.25 C3.29327735 8.75966413 4.93882953 11.20957423 9 15 C4.95130334 14.07984167 3.3194069 13.41700346 0.75 10.0625 C-0.11625 8.5465625 -0.11625 8.5465625 -1 7 C-1.66 6.01 -2.32 5.02 -3 4 C-2.01 3.67 -1.02 3.34 0 3 C0 2.01 0 1.02 0 0 Z " fill="#548AB2" transform="translate(443,163)"/>
<path d="M0 0 C0.33 0 0.66 0 1 0 C1.125 3.375 1.125 3.375 1 7 C0.34 7.66 -0.32 8.32 -1 9 C-1.39764263 10.98821313 -1.73775349 12.98944339 -2 15 C-2.99 15.33 -3.98 15.66 -5 16 C-3.72093023 3.72093023 -3.72093023 3.72093023 0 0 Z " fill="#57AECE" transform="translate(283,153)"/>
<path d="M0 0 C1.32 0.33 2.64 0.66 4 1 C4 3.31 4 5.62 4 8 C3.67 8 3.34 8 3 8 C2.67 9.98 2.34 11.96 2 14 C-0.28062828 10.57905758 -0.21925007 9.31812778 -0.125 5.3125 C-0.10695313 4.31863281 -0.08890625 3.32476562 -0.0703125 2.30078125 C-0.04710937 1.54152344 -0.02390625 0.78226562 0 0 Z " fill="#3775A1" transform="translate(404,271)"/>
<path d="M0 0 C0.33 0.99 0.66 1.98 1 3 C-1.15376409 6.90868297 -2.79929789 9.41440403 -7 11 C-9.578125 11.1953125 -9.578125 11.1953125 -12.25 11.125 C-13.14203125 11.10695312 -14.0340625 11.08890625 -14.953125 11.0703125 C-15.96632812 11.03550781 -15.96632812 11.03550781 -17 11 C-17 10.67 -17 10.34 -17 10 C-12.545 9.505 -12.545 9.505 -8 9 C-8.33 8.34 -8.66 7.68 -9 7 C-7.6078125 6.38125 -7.6078125 6.38125 -6.1875 5.75 C-3.11945319 4.06558214 -1.80959535 2.91545917 0 0 Z " fill="#A6CCE6" transform="translate(249,163)"/>
<path d="M0 0 C0.66 0 1.32 0 2 0 C2.33 5.28 2.66 10.56 3 16 C2.01 16 1.02 16 0 16 C0 10.72 0 5.44 0 0 Z " fill="#115F95" transform="translate(254,266)"/>
<path d="M0 0 C1.04423719 3.39377086 1 6.46829831 1 10 C1.28739925 12.24240782 1.28739925 12.24240782 2 14 C2.66 14.33 3.32 14.66 4 15 C3.67 15.99 3.34 16.98 3 18 C-2.35714286 11.57142857 -2.35714286 11.57142857 -2.4375 6.75 C-2 3 -2 3 0 0 Z " fill="#528CB3" transform="translate(195,166)"/>
<path d="M0 0 C0.33 1.32 0.66 2.64 1 4 C0.38125 4.2475 -0.2375 4.495 -0.875 4.75 C-3.38895216 6.22879539 -3.8534051 7.37921165 -5 10 C-5.66 10.66 -6.32 11.32 -7 12 C-7.99 11.67 -8.98 11.34 -10 11 C-8.52116808 9.35386588 -7.04192523 7.70810092 -5.5625 6.0625 C-4.73878906 5.14597656 -3.91507812 4.22945312 -3.06640625 3.28515625 C-1 1 -1 1 0 0 Z " fill="#D8EEF6" transform="translate(287,128)"/>
<path d="M0 0 C-0.33 1.32 -0.66 2.64 -1 4 C-3.97 4.66 -6.94 5.32 -10 6 C-9.34 5.01 -8.68 4.02 -8 3 C-8.66 2.34 -9.32 1.68 -10 1 C-6.56484998 0.37542727 -3.50935186 0 0 0 Z " fill="#7497B5" transform="translate(377,236)"/>
<path d="M0 0 C0 0.99 0 1.98 0 3 C-0.80695313 2.84660156 -1.61390625 2.69320312 -2.4453125 2.53515625 C-6.59047179 1.9111048 -10.6922296 1.65372796 -14.875 1.4375 C-15.65875 1.39431641 -16.4425 1.35113281 -17.25 1.30664062 C-19.16650649 1.20146649 -21.08323333 1.10032075 -23 1 C-23 0.67 -23 0.34 -23 0 C-20.10450497 -0.1954384 -17.20891002 -0.38161395 -14.3125 -0.5625 C-13.49587891 -0.61857422 -12.67925781 -0.67464844 -11.83789062 -0.73242188 C-7.70485877 -0.98341571 -4.04175718 -1.11127743 0 0 Z " fill="#679BBD" transform="translate(433,228)"/>
<path d="M0 0 C2.25 0.3125 2.25 0.3125 4 1 C-1.625 5.875 -1.625 5.875 -5 7 C-5 6.34 -5 5.68 -5 5 C-7.97 5 -10.94 5 -14 5 C-14 4.67 -14 4.34 -14 4 C-13.32453125 3.96261719 -12.6490625 3.92523438 -11.953125 3.88671875 C-11.06109375 3.82097656 -10.1690625 3.75523437 -9.25 3.6875 C-8.36828125 3.62949219 -7.4865625 3.57148438 -6.578125 3.51171875 C-3.66411201 2.93333132 -2.29490188 1.82009459 0 0 Z " fill="#4585AB" transform="translate(356,211)"/>
<path d="M0 0 C5.28 0 10.56 0 16 0 C16.33 1.32 16.66 2.64 17 4 C16.21625 4.309375 15.4325 4.61875 14.625 4.9375 C12.07669872 5.92875038 12.07669872 5.92875038 10 7 C10 5.35 10 3.7 10 2 C6.7 1.67 3.4 1.34 0 1 C0 0.67 0 0.34 0 0 Z " fill="#3C87B6" transform="translate(344,196)"/>
<path d="M0 0 C0.66 0.33 1.32 0.66 2 1 C1.01 2.485 1.01 2.485 0 4 C-0.99 4 -1.98 4 -3 4 C-3.2784375 4.86625 -3.2784375 4.86625 -3.5625 5.75 C-5.74569692 9.16717779 -8.36059284 10.24528583 -12 12 C-12.66 11.67 -13.32 11.34 -14 11 C-9.5128202 7.03109629 -4.92245182 3.41557881 0 0 Z " fill="#5591B5" transform="translate(241,121)"/>
<path d="M0 0 C0.99 0.99 1.98 1.98 3 3 C2.01 3.33 1.02 3.66 0 4 C0.66 4.66 1.32 5.32 2 6 C3.01405257 7.32267727 4.01268258 8.65724831 5 10 C5.556875 10.7425 6.11375 11.485 6.6875 12.25 C7.3371875 13.11625 7.3371875 13.11625 8 14 C5.0991395 13.64701919 4.10483324 13.11271704 2.078125 10.93359375 C1.47484375 10.10988281 0.8715625 9.28617187 0.25 8.4375 C-0.36359375 7.61121094 -0.9771875 6.78492188 -1.609375 5.93359375 C-2.06828125 5.29550781 -2.5271875 4.65742188 -3 4 C-2.34 3.67 -1.68 3.34 -1 3 C-0.67 2.01 -0.34 1.02 0 0 Z " fill="#5189AC" transform="translate(448,276)"/>
<path d="M0 0 C0.99 0.99 1.98 1.98 3 3 C5.50203648 3.57571496 5.50203648 3.57571496 8.1875 3.6875 C9.08855469 3.75324219 9.98960937 3.81898438 10.91796875 3.88671875 C11.60503906 3.92410156 12.29210937 3.96148437 13 4 C13 4.33 13 4.66 13 5 C9.7 5 6.4 5 3 5 C3.061875 5.94875 3.12375 6.8975 3.1875 7.875 C3.125625 8.90625 3.06375 9.9375 3 11 C2.01 11.66 1.02 12.32 0 13 C0 8.71 0 4.42 0 0 Z " fill="#5695C2" transform="translate(285,274)"/>
<path d="M0 0 C2.0625 0.4375 2.0625 0.4375 4 1 C4 1.66 4 2.32 4 3 C3.01 3 2.02 3 1 3 C1.33 3.5775 1.66 4.155 2 4.75 C3 7 3 7 3 11 C1.68 11 0.36 11 -1 11 C-1.02688151 9.35425434 -1.04634123 7.70838587 -1.0625 6.0625 C-1.07410156 5.14597656 -1.08570313 4.22945313 -1.09765625 3.28515625 C-1 1 -1 1 0 0 Z " fill="#5A8DB6" transform="translate(453,263)"/>
<path d="M0 0 C0.99 0.33 1.98 0.66 3 1 C2.59007812 1.64066406 2.18015625 2.28132812 1.7578125 2.94140625 C-1.33815426 7.91124762 -3.75372504 12.26713518 -5 18 C-5.33 18 -5.66 18 -6 18 C-5.38400666 7.060808 -5.38400666 7.060808 -2 3 C-1.34 3 -0.68 3 0 3 C0 2.01 0 1.02 0 0 Z " fill="#DFF9FD" transform="translate(284,147)"/>
<path d="M0 0 C0.33 0 0.66 0 1 0 C1.33 7.92 1.66 15.84 2 24 C1.01 24 0.02 24 -1 24 C-0.67 16.08 -0.34 8.16 0 0 Z " fill="#236897" transform="translate(393,266)"/>
<path d="M0 0 C3.43595166 1.52708963 6.11912454 3.59927045 9 6 C8.01 6.33 7.02 6.66 6 7 C6 6.34 6 5.68 6 5 C3.14221967 4.31506627 3.14221967 4.31506627 0 4 C-0.99 4.66 -1.98 5.32 -3 6 C-3.66 5.34 -4.32 4.68 -5 4 C-3.35 2.68 -1.7 1.36 0 0 Z " fill="#D9F5FA" transform="translate(333,181)"/>
<path d="M0 0 C0.33 0 0.66 0 1 0 C1.09796875 0.66386719 1.1959375 1.32773438 1.296875 2.01171875 C2.20767735 7.39016365 3.02133525 11.02133525 7 15 C7.5775 15.598125 8.155 16.19625 8.75 16.8125 C9.1625 17.204375 9.575 17.59625 10 18 C7.25 18.0625 7.25 18.0625 4 17 C0.19451627 11.71844985 -0.46002519 6.32534631 0 0 Z " fill="#4488B5" transform="translate(221,155)"/>
<path d="M0 0 C1.32 1.32 2.64 2.64 4 4 C3.01 6.31 2.02 8.62 1 11 C0.01 10.01 -0.98 9.02 -2 8 C-1.34 8 -0.68 8 0 8 C-0.185625 7.05125 -0.37125 6.1025 -0.5625 5.125 C-1 2 -1 2 0 0 Z " fill="#227EBA" transform="translate(432,147)"/>
<path d="M0 0 C0.66 0 1.32 0 2 0 C2.33 1.98 2.66 3.96 3 6 C3.66 4.35 4.32 2.7 5 1 C5.33 1 5.66 1 6 1 C5.25 7.75 5.25 7.75 3 10 C2.01 10 1.02 10 0 10 C0 9.34 0 8.68 0 8 C-0.66 7.34 -1.32 6.68 -2 6 C-1.34 5.67 -0.68 5.34 0 5 C0 3.35 0 1.7 0 0 Z " fill="#5281AA" transform="translate(215,279)"/>
<path d="M0 0 C0 0.99 0 1.98 0 3 C-0.99 3.495 -0.99 3.495 -2 4 C-2.33 4.99 -2.66 5.98 -3 7 C-5.0625 7.6875 -5.0625 7.6875 -7 8 C-6.75 5.125 -6.75 5.125 -6 2 C-3.84139132 0.46808416 -2.63707871 0 0 0 Z " fill="#33739D" transform="translate(372,265)"/>
<path d="M0 0 C3.63 0.33 7.26 0.66 11 1 C11 1.66 11 2.32 11 3 C6.98195309 3.84098656 3.98196457 4.05404945 0 3 C0 2.01 0 1.02 0 0 Z " fill="#1778BB" transform="translate(336,216)"/>
<path d="M0 0 C0.66 0.99 1.32 1.98 2 3 C1.34 3.66 0.68 4.32 0 5 C-3.625 4.625 -3.625 4.625 -7 4 C-7.33 3.01 -7.66 2.02 -8 1 C-6.865625 1.020625 -5.73125 1.04125 -4.5625 1.0625 C-1.18424326 1.41577477 -1.18424326 1.41577477 0 0 Z " fill="#357198" transform="translate(299,264)"/>
<path d="M0 0 C2.58422459 0.11418667 5.16679513 0.24092362 7.75 0.375 C8.47960937 0.4059375 9.20921875 0.436875 9.9609375 0.46875 C13.73942656 0.6748494 16.77946668 0.91512843 20 3 C20 3.33 20 3.66 20 4 C13.25390382 3.33644956 6.65551466 2.28134207 0 1 C0 0.67 0 0.34 0 0 Z " fill="#5989B1" transform="translate(286,241)"/>
<path d="M0 0 C2.50866154 1.1759351 3.51540594 2.63637921 5 4.9375 C-1.625 5.1875 -1.625 5.1875 -5 2.9375 C-2.58536585 -0.08079268 -2.58536585 -0.08079268 0 0 Z " fill="#D6F4FA" transform="translate(307,181.0625)"/>
<path d="M0 0 C0.33 0 0.66 0 1 0 C1.68867618 10.75100043 1.68867618 10.75100043 -0.875 14.625 C-3 17 -3 17 -5 18 C-4.80664062 17.45472656 -4.61328125 16.90945312 -4.4140625 16.34765625 C-2.55239547 10.9561948 -1.12344334 5.59078274 0 0 Z " fill="#B5DEF6" transform="translate(252,152)"/>
<path d="M0 0 C0.75 1.6875 0.75 1.6875 1 4 C-0.9375 6.75 -0.9375 6.75 -3 9 C-4.875 8.6875 -4.875 8.6875 -7 8 C-7.66 7.01 -8.32 6.02 -9 5 C-8.071875 4.855625 -7.14375 4.71125 -6.1875 4.5625 C-2.99274889 4.07899889 -2.99274889 4.07899889 0 3 C0 2.01 0 1.02 0 0 Z " fill="#2C739F" transform="translate(369,195)"/>
<path d="M0 0 C-0.33 1.32 -0.66 2.64 -1 4 C-2.65 4.33 -4.3 4.66 -6 5 C-6 3.35 -6 1.7 -6 0 C-3.50907189 -1.24546405 -2.58919267 -0.7767578 0 0 Z " fill="#147CBA" transform="translate(336,193)"/>
<path d="M0 0 C4.36540858 1.19056598 7.25785037 2.30864473 10 6 C10.25 8.75 10.25 8.75 10 11 C6.40365256 7.50640535 3.16548033 3.88901869 0 0 Z " fill="#5594BB" transform="translate(199,184)"/>
<path d="M0 0 C0 2.64 0 5.28 0 8 C-1.65 7.67 -3.3 7.34 -5 7 C-5 6.34 -5 5.68 -5 5 C-4.01 5 -3.02 5 -2 5 C-2 4.01 -2 3.02 -2 2 C-3.65 2 -5.3 2 -7 2 C-4.35261084 0.5393715 -3.10551666 0 0 0 Z " fill="#3F85B4" transform="translate(251,153)"/>
<path d="M0 0 C0.99 0.33 1.98 0.66 3 1 C3.1875 3.375 3.1875 3.375 3 6 C2.01 6.66 1.02 7.32 0 8 C-1.4606285 5.35261084 -2 4.10551666 -2 1 C-1.34 0.67 -0.68 0.34 0 0 Z " fill="#4D7A9A" transform="translate(323,263)"/>
<path d="M0 0 C0.515625 0.70125 1.03125 1.4025 1.5625 2.125 C4.41939716 5.49467357 7.58871997 8.21156604 11 11 C10.34 11.66 9.68 12.32 9 13 C9 12.34 9 11.68 9 11 C6.03 10.505 6.03 10.505 3 10 C2.67 8.02 2.34 6.04 2 4 C1.34 4 0.68 4 0 4 C0 2.68 0 1.36 0 0 Z " fill="#3B83AD" transform="translate(277,212)"/>
<path d="M0 0 C0.33 0 0.66 0 1 0 C1.33 3.63 1.66 7.26 2 11 C2.99 11.33 3.98 11.66 5 12 C5 12.66 5 13.32 5 14 C6.32 13.67 7.64 13.34 9 13 C8.01 14.485 8.01 14.485 7 16 C3.60606022 14.59561113 1.91654773 13.13616902 0 10 C-0.29296875 7.421875 -0.29296875 7.421875 -0.1875 4.75 C-0.16042969 3.85796875 -0.13335937 2.9659375 -0.10546875 2.046875 C-0.07066406 1.37140625 -0.03585938 0.6959375 0 0 Z " fill="#357EAB" transform="translate(225,153)"/>
<path d="M0 0 C0.90105469 0.01804688 1.80210937 0.03609375 2.73046875 0.0546875 C3.41753906 0.07789063 4.10460937 0.10109375 4.8125 0.125 C4.8125 0.785 4.8125 1.445 4.8125 2.125 C5.4725 2.125 6.1325 2.125 6.8125 2.125 C6.4825 2.785 6.1525 3.445 5.8125 4.125 C4.8225 3.795 3.8325 3.465 2.8125 3.125 C0.92037263 2.90320215 -0.97634472 2.71885985 -2.875 2.5625 C-3.86886719 2.47871094 -4.86273438 2.39492187 -5.88671875 2.30859375 C-7.02560547 2.21771484 -7.02560547 2.21771484 -8.1875 2.125 C-4.87379 -0.08414 -3.8428979 -0.09981553 0 0 Z " fill="#5190B8" transform="translate(240.1875,140.875)"/>
<path d="M0 0 C4.10959039 0.45662115 6.31677104 0.80567981 9 4 C9.99 4.66 10.98 5.32 12 6 C11.34 6 10.68 6 10 6 C9.67 6.66 9.34 7.32 9 8 C7.49712782 6.85793642 5.99776716 5.71125043 4.5 4.5625 C3.6646875 3.92441406 2.829375 3.28632813 1.96875 2.62890625 C1.3190625 2.09136719 0.669375 1.55382812 0 1 C0 0.67 0 0.34 0 0 Z " fill="#4185AE" transform="translate(406,133)"/>
<path d="M0 0 C2.97 0.33 5.94 0.66 9 1 C9 1.99 9 2.98 9 4 C6.03 3.67 3.06 3.34 0 3 C0 2.01 0 1.02 0 0 Z " fill="#1F608C" transform="translate(373,264)"/>
<path d="M0 0 C2.97 0 5.94 0 9 0 C8 3 8 3 5.875 4.1875 C2.48581699 5.14531259 -0.49471861 5.13746202 -4 5 C-4 4.67 -4 4.34 -4 4 C0.455 3.505 0.455 3.505 5 3 C5 2.34 5 1.68 5 1 C3.35 1 1.7 1 0 1 C0 0.67 0 0.34 0 0 Z " fill="#2A78AA" transform="translate(342,216)"/>
<path d="M0 0 C0 0.66 0 1.32 0 2 C-2.22937052 4.19290886 -3.41693303 4.98321474 -6.578125 5.07421875 C-7.45984375 4.94660156 -8.3415625 4.81898438 -9.25 4.6875 C-10.58804687 4.50767578 -10.58804687 4.50767578 -11.953125 4.32421875 C-12.96632813 4.16373047 -12.96632813 4.16373047 -14 4 C-14 3.67 -14 3.34 -14 3 C-13.30132812 2.86722656 -12.60265625 2.73445312 -11.8828125 2.59765625 C-10.51769531 2.33275391 -10.51769531 2.33275391 -9.125 2.0625 C-8.22007812 1.88847656 -7.31515625 1.71445313 -6.3828125 1.53515625 C-4.0328149 1.0073699 -2.39804152 0 0 0 Z " fill="#418BB7" transform="translate(330,212)"/>
<path d="M0 0 C0.33 0.66 0.66 1.32 1 2 C1.66 2 2.32 2 3 2 C2.67 3.32 2.34 4.64 2 6 C2 5.01 2 4.02 2 3 C1.34 4.65 0.68 6.3 0 8 C-1.32 7.34 -2.64 6.68 -4 6 C-3.67 5.01 -3.34 4.02 -3 3 C-2.01 2.67 -1.02 2.34 0 2 C0 1.34 0 0.68 0 0 Z " fill="#176CAB" transform="translate(443,160)"/>
<path d="M0 0 C0.66 0 1.32 0 2 0 C2.33 1.32 2.66 2.64 3 4 C3.66 3.67 4.32 3.34 5 3 C5 4.98 5 6.96 5 9 C4.01 9 3.02 9 2 9 C1.67 7.02 1.34 5.04 1 3 C0.34 3 -0.32 3 -1 3 C-0.67 2.01 -0.34 1.02 0 0 Z " fill="#176194" transform="translate(330,280)"/>
<path d="M0 0 C1.22589844 0.01353516 1.22589844 0.01353516 2.4765625 0.02734375 C3.41628906 0.04474609 3.41628906 0.04474609 4.375 0.0625 C4.375 0.7225 4.375 1.3825 4.375 2.0625 C0.745 2.3925 -2.885 2.7225 -6.625 3.0625 C-6.625 2.4025 -6.625 1.7425 -6.625 1.0625 C-4.21954362 -0.14022819 -2.67503047 -0.03821472 0 0 Z " fill="#37739F" transform="translate(350.625,242.9375)"/>
<path d="M0 0 C1.88391785 3.26545761 2.49287967 6.28111761 3 10 C2.01 10 1.02 10 0 10 C-1.6875 7.5 -1.6875 7.5 -3 5 C-2.01 5 -1.02 5 0 5 C0 3.35 0 1.7 0 0 Z " fill="#6B8BA6" transform="translate(471,187)"/>
<path d="M0 0 C-3.25852365 2.1723491 -6.59244728 4.07119658 -10 6 C-10.33 4.35 -10.66 2.7 -11 1 C-7.27569643 0.30710631 -3.78916254 -0.11144596 0 0 Z " fill="#2074AB" transform="translate(235,141)"/>
<path d="M0 0 C0.99 0 1.98 0 3 0 C3 0.66 3 1.32 3 2 C3.99 2.33 4.98 2.66 6 3 C5.67 3.66 5.34 4.32 5 5 C2.69 5 0.38 5 -2 5 C-1.34 3.35 -0.68 1.7 0 0 Z " fill="#1770A9" transform="translate(394,109)"/>
<path d="M0 0 C3.3 0 6.6 0 10 0 C10 0.99 10 1.98 10 3 C8.5199159 2.88637738 7.04089926 2.75877092 5.5625 2.625 C4.73878906 2.55539062 3.91507812 2.48578125 3.06640625 2.4140625 C2.38449219 2.27742188 1.70257813 2.14078125 1 2 C0.67 1.34 0.34 0.68 0 0 Z " fill="#225E8E" transform="translate(412,286)"/>
<path d="M0 0 C0.66 0.99 1.32 1.98 2 3 C1.34 3.66 0.68 4.32 0 5 C-0.66 4.67 -1.32 4.34 -2 4 C-3.70702735 3.93003986 -5.41668003 3.91559846 -7.125 3.9375 C-8.03507812 3.94652344 -8.94515625 3.95554688 -9.8828125 3.96484375 C-10.93082031 3.98224609 -10.93082031 3.98224609 -12 4 C-12 3.67 -12 3.34 -12 3 C-11.38511719 2.86722656 -10.77023437 2.73445312 -10.13671875 2.59765625 C-9.32847656 2.42105469 -8.52023437 2.24445313 -7.6875 2.0625 C-6.88699219 1.88847656 -6.08648437 1.71445313 -5.26171875 1.53515625 C-2.854599 1.00113841 -2.854599 1.00113841 0 0 Z " fill="#3C8CB9" transform="translate(329,193)"/>
<path d="M0 0 C1.134375 0.020625 2.26875 0.04125 3.4375 0.0625 C0.24081012 2.7111859 -2.95736597 5.00242341 -6.5625 7.0625 C-6.2325 6.0725 -5.9025 5.0825 -5.5625 4.0625 C-4.9025 4.0625 -4.2425 4.0625 -3.5625 4.0625 C-3.8925 3.0725 -4.2225 2.0825 -4.5625 1.0625 C-3.5625 0.0625 -3.5625 0.0625 0 0 Z " fill="#317EAE" transform="translate(294.5625,119.9375)"/>
<path d="M0 0 C2.64 0.33 5.28 0.66 8 1 C8 1.66 8 2.32 8 3 C8.66 3 9.32 3 10 3 C9.67 3.66 9.34 4.32 9 5 C2.25 3.375 2.25 3.375 0 0 Z " fill="#2E72A6" transform="translate(376,101)"/>
<path d="M0 0 C3.3 0 6.6 0 10 0 C10 0.99 10 1.98 10 3 C4.58461538 4.23076923 4.58461538 4.23076923 1.625 3.0625 C1.08875 2.711875 0.5525 2.36125 0 2 C0 1.34 0 0.68 0 0 Z " fill="#2E6595" transform="translate(259,285)"/>
<path d="M0 0 C2.56687367 3.8503105 1.83288724 5.58569763 1 10 C0.34 10 -0.32 10 -1 10 C-1.02689216 8.52093108 -1.04634621 7.04172517 -1.0625 5.5625 C-1.07410156 4.73878906 -1.08570313 3.91507812 -1.09765625 3.06640625 C-1 1 -1 1 0 0 Z " fill="#176095" transform="translate(425,271)"/>
<path d="M0 0 C1.32 0.99 2.64 1.98 4 3 C3.67 2.01 3.34 1.02 3 0 C4.65 0.33 6.3 0.66 8 1 C6.35 2.98 4.7 4.96 3 7 C1.68 6.01 0.36 5.02 -1 4 C-0.67 2.68 -0.34 1.36 0 0 Z " fill="#568DB3" transform="translate(406,267)"/>
<path d="M0 0 C3.0625 1.1875 3.0625 1.1875 6.0625 3.1875 C6.0625 3.8475 6.0625 4.5075 6.0625 5.1875 C4.60182801 4.73667531 3.14401968 4.27656463 1.6875 3.8125 C0.87539063 3.55726563 0.06328125 3.30203125 -0.7734375 3.0390625 C-2.9375 2.1875 -2.9375 2.1875 -4.9375 0.1875 C-2.9375 -0.8125 -2.9375 -0.8125 0 0 Z " fill="#5E8EB7" transform="translate(262.9375,229.8125)"/>
<path d="M0 0 C0.99 0.33 1.98 0.66 3 1 C-4.11389522 8.66742597 -4.11389522 8.66742597 -9 10 C-6.22237877 6.39937989 -3.26008643 3.16952847 0 0 Z " fill="#ECE9EA" transform="translate(374,218)"/>
<path d="M0 0 C1.4370809 -0.05422947 2.87475462 -0.09289723 4.3125 -0.125 C5.11300781 -0.14820313 5.91351563 -0.17140625 6.73828125 -0.1953125 C9 0 9 0 12 2 C11.34 2 10.68 2 10 2 C9.67 2.66 9.34 3.32 9 4 C8.67 3.67 8.34 3.34 8 3 C6.65252916 2.76924918 5.29622435 2.58846937 3.9375 2.4375 C2.638125 2.293125 1.33875 2.14875 0 2 C0 1.34 0 0.68 0 0 Z " fill="#BFE2F6" transform="translate(234,143)"/>
<path d="M0 0 C3.01217112 0.64449607 5.51655836 1.65022182 8.25 3.0625 C8.95640625 3.42472656 9.6628125 3.78695312 10.390625 4.16015625 C10.92171875 4.43730469 11.4528125 4.71445313 12 5 C8.68604014 6.08784335 8.16419665 6.07262544 4.75 4.5625 C3.8425 4.046875 2.935 3.53125 2 3 C2 2.34 2 1.68 2 1 C1.34 0.67 0.68 0.34 0 0 Z " fill="#5790B6" transform="translate(384,103)"/>
<path d="M0 0 C5.4611399 0.35233161 5.4611399 0.35233161 8 1 C9.5 3.0625 9.5 3.0625 10 5 C7.36 4.67 4.72 4.34 2 4 C2.33 3.34 2.66 2.68 3 2 C2.01 1.34 1.02 0.68 0 0 Z " fill="#5192C1" transform="translate(210,273)"/>
<path d="M0 0 C0.99 0 1.98 0 3 0 C3 3.63 3 7.26 3 11 C0.9375 8.875 0.9375 8.875 -1 6 C-0.75 2.6875 -0.75 2.6875 0 0 Z " fill="#3F85B8" transform="translate(452,274)"/>
<path d="M0 0 C-4.29290618 4.75286041 -4.29290618 4.75286041 -8 5 C-8.66 4.34 -9.32 3.68 -10 3 C-9.34 3 -8.68 3 -8 3 C-8 2.34 -8 1.68 -8 1 C-5.07175348 0.02391783 -3.04386724 -0.08226668 0 0 Z " fill="#3086BC" transform="translate(334,217)"/>
<path d="M0 0 C2.475 0.495 2.475 0.495 5 1 C5.33 2.65 5.66 4.3 6 6 C3.13275314 5.42655063 2.1385485 5.1385485 0 3 C0 2.01 0 1.02 0 0 Z " fill="#347CA8" transform="translate(426,149)"/>
<path d="M0 0 C0.99 0.33 1.98 0.66 3 1 C2.67 2.98 2.34 4.96 2 7 C1.01 7 0.02 7 -1 7 C-0.67 4.69 -0.34 2.38 0 0 Z " fill="#E3EAF3" transform="translate(244,145)"/>
<path d="M0 0 C1.65 0 3.3 0 5 0 C4.34 2.64 3.68 5.28 3 8 C2.67 8 2.34 8 2 8 C1.67 6.35 1.34 4.7 1 3 C0.34 3.66 -0.32 4.32 -1 5 C-0.67 3.35 -0.34 1.7 0 0 Z " fill="#417CA7" transform="translate(333,281)"/>
<path d="M0 0 C1.7074998 1.28062485 3.37373596 2.61767557 5 4 C5 6 5 6 3.625 7.625 C2 9 2 9 0 9 C0 6.03 0 3.06 0 0 Z " fill="#4685AD" transform="translate(439,264)"/>
<path d="M0 0 C0.99 0.33 1.98 0.66 3 1 C3 1.66 3 2.32 3 3 C-0.465 4.485 -0.465 4.485 -4 6 C-3.6875 4.125 -3.6875 4.125 -3 2 C-2.01 1.34 -1.02 0.68 0 0 Z " fill="#2C6B9D" transform="translate(416,215)"/>
<path d="M0 0 C2.4375 0.8125 2.4375 0.8125 5 2 C5.33 2.99 5.66 3.98 6 5 C4.125 5.625 4.125 5.625 2 6 C1.34 5.34 0.68 4.68 0 4 C0.33 3.34 0.66 2.68 1 2 C0.34 1.67 -0.32 1.34 -1 1 C-0.67 0.67 -0.34 0.34 0 0 Z " fill="#137DBC" transform="translate(305,192)"/>
<path d="M0 0 C2.9375 1.125 2.9375 1.125 6 3 C6.875 6.1875 6.875 6.1875 7 9 C5.82460004 8.07347299 4.65989423 7.13336613 3.5 6.1875 C2.52546875 5.40439453 2.52546875 5.40439453 1.53125 4.60546875 C0 3 0 3 0 0 Z " fill="#2771A7" transform="translate(433,143)"/>
<path d="M0 0 C-0.33 1.32 -0.66 2.64 -1 4 C-3.64 4.66 -6.28 5.32 -9 6 C-3.15384615 0 -3.15384615 0 0 0 Z " fill="#C9E6F2" transform="translate(304,117)"/>
<path d="M0 0 C1.98 0.495 1.98 0.495 4 1 C4 4.20395416 3.25664978 6.09399739 2 9 C1.01 7.68 0.02 6.36 -1 5 C-0.67 4.34 -0.34 3.68 0 3 C0.66 3 1.32 3 2 3 C2 2.34 2 1.68 2 1 C1.34 0.67 0.68 0.34 0 0 Z " fill="#5C8EB5" transform="translate(214,264)"/>
<path d="M0 0 C-1.125 1.5 -1.125 1.5 -3 3 C-6.1875 3.1875 -6.1875 3.1875 -9 3 C-9 2.01 -9 1.02 -9 0 C-3.375 -1.125 -3.375 -1.125 0 0 Z " fill="#185684" transform="translate(370,239)"/>
<path d="M0 0 C3.96 0 7.92 0 12 0 C12 0.99 12 1.98 12 3 C8.04 2.67 4.08 2.34 0 2 C0 1.34 0 0.68 0 0 Z " fill="#1F5A84" transform="translate(234,286)"/>
<path d="M0 0 C2.875 -0.125 2.875 -0.125 6 0 C6.66 0.66 7.32 1.32 8 2 C6.35 2.33 4.7 2.66 3 3 C2.67 4.32 2.34 5.64 2 7 C2.66 7.33 3.32 7.66 4 8 C3.01 8 2.02 8 1 8 C0.67 5.36 0.34 2.72 0 0 Z " fill="#3F7FB0" transform="translate(205,266)"/>
<path d="M0 0 C0.99 0.66 1.98 1.32 3 2 C2.34 2 1.68 2 1 2 C1 2.66 1 3.32 1 4 C-1.5 5.625 -1.5 5.625 -4 7 C-4 5.68 -4 4.36 -4 3 C-2.68 2.67 -1.36 2.34 0 2 C0 1.34 0 0.68 0 0 Z " fill="#297FBE" transform="translate(419,216)"/>
<path d="M0 0 C0.66 0 1.32 0 2 0 C2.33 1.98 2.66 3.96 3 6 C2.34 6 1.68 6 1 6 C0.67 6.66 0.34 7.32 0 8 C-0.99 6.68 -1.98 5.36 -3 4 C-2.01 3.67 -1.02 3.34 0 3 C0 2.01 0 1.02 0 0 Z " fill="#3A7FC0" transform="translate(443,163)"/>
<path d="M0 0 C0.33 0 0.66 0 1 0 C1.33 3.3 1.66 6.6 2 10 C1.34 10 0.68 10 0 10 C-1.36952673 7.26094655 -1.12621361 5.02912668 -1 2 C-0.67 1.34 -0.34 0.68 0 0 Z " fill="#C3E8FC" transform="translate(223,154)"/>
<path d="M0 0 C1.32 0.33 2.64 0.66 4 1 C4 1.66 4 2.32 4 3 C3.34 3 2.68 3 2 3 C1.67 3.66 1.34 4.32 1 5 C0.01 5 -0.98 5 -2 5 C-2.33 4.34 -2.66 3.68 -3 3 C-2.34 3 -1.68 3 -1 3 C-0.67 2.01 -0.34 1.02 0 0 Z " fill="#2E7FBB" transform="translate(439,159)"/>
<path d="M0 0 C0.66 0.99 1.32 1.98 2 3 C0.25 4.5625 0.25 4.5625 -2 6 C-4.25 5.6875 -4.25 5.6875 -6 5 C-4.02 3.35 -2.04 1.7 0 0 Z " fill="#4185B3" transform="translate(464,147)"/>
<path d="M0 0 C1.21236328 0.04060547 1.21236328 0.04060547 2.44921875 0.08203125 C3.06410156 0.11683594 3.67898437 0.15164062 4.3125 0.1875 C0.27957255 2.4219598 -3.13717434 2.73246743 -7.6875 3.1875 C-5.26849268 0.20484049 -3.789448 -0.16475861 0 0 Z " fill="#4184AF" transform="translate(237.6875,144.8125)"/>
<path d="M0 0 C2.97 1.65 5.94 3.3 9 5 C8.34 5.66 7.68 6.32 7 7 C4.9375 6.8125 4.9375 6.8125 3 6 C2.67 5.01 2.34 4.02 2 3 C1.34 2.67 0.68 2.34 0 2 C0 1.34 0 0.68 0 0 Z " fill="#4E89B8" transform="translate(397,109)"/>
<path d="M0 0 C0.598125 0.350625 1.19625 0.70125 1.8125 1.0625 C1.4825 1.7225 1.1525 2.3825 0.8125 3.0625 C-0.8375 3.0625 -2.4875 3.0625 -4.1875 3.0625 C-4.5175 2.0725 -4.8475 1.0825 -5.1875 0.0625 C-2.1875 -0.9375 -2.1875 -0.9375 0 0 Z " fill="#124D89" transform="translate(214.1875,285.9375)"/>
<path d="M0 0 C-0.33 1.65 -0.66 3.3 -1 5 C-1.33 4.01 -1.66 3.02 -2 2 C-2.99 2.495 -2.99 2.495 -4 3 C-6.6723621 3.13415472 -9.32250488 3.04318541 -12 3 C-12 2.67 -12 2.34 -12 2 C-10.37548581 1.66430703 -8.75037083 1.3315204 -7.125 1 C-6.22007812 0.814375 -5.31515625 0.62875 -4.3828125 0.4375 C-2 0 -2 0 0 0 Z " fill="#689DB7" transform="translate(372,193)"/>
<path d="M0 0 C0.99 0.33 1.98 0.66 3 1 C2.34 2.98 1.68 4.96 1 7 C0.67 5.68 0.34 4.36 0 3 C-1.98 3.99 -1.98 3.99 -4 5 C-2.68 3.35 -1.36 1.7 0 0 Z " fill="#6380A6" transform="translate(472,139)"/>
<path d="M0 0 C0.66 0 1.32 0 2 0 C2 0.66 2 1.32 2 2 C4.31 2.66 6.62 3.32 9 4 C7.3125 5.1875 7.3125 5.1875 5 6 C2.25 4.8125 2.25 4.8125 0 3 C0 2.01 0 1.02 0 0 Z " fill="#3C89B6" transform="translate(387,119)"/>
<path d="M0 0 C0.33 0.66 0.66 1.32 1 2 C2.65 2 4.3 2 6 2 C4.4375 3.125 4.4375 3.125 2 4 C-1.75 3.125 -1.75 3.125 -5 2 C-5 1.67 -5 1.34 -5 1 C-3.35 0.67 -1.7 0.34 0 0 Z " fill="#6E96BD" transform="translate(262,287)"/>
<path d="M0 0 C1.32 0 2.64 0 4 0 C4 0.66 4 1.32 4 2 C4.66 2.33 5.32 2.66 6 3 C4.1875 3.625 4.1875 3.625 2 4 C1.01 3.34 0.02 2.68 -1 2 C-0.67 1.34 -0.34 0.68 0 0 Z " fill="#1E658E" transform="translate(373,275)"/>
<path d="M0 0 C1.32 0 2.64 0 4 0 C3.67 1.32 3.34 2.64 3 4 C1.35 4 -0.3 4 -2 4 C-1.34 2.68 -0.68 1.36 0 0 Z " fill="#627E9B" transform="translate(373,236)"/>
<path d="M0 0 C2.6855594 2.6855594 3.06049974 5.37621328 4 9 C3.34 9.66 2.68 10.32 2 11 C0.80712589 7.12315913 0 4.08378077 0 0 Z " fill="#3F85B1" transform="translate(267,193)"/>
<path d="M0 0 C-0.33 1.65 -0.66 3.3 -1 5 C-2.65 3.68 -4.3 2.36 -6 1 C-4 0 -4 0 0 0 Z " fill="#1B7AB7" transform="translate(364,196)"/>
<path d="M0 0 C1.32 0 2.64 0 4 0 C4 1.65 4 3.3 4 5 C3.01 5 2.02 5 1 5 C0.34 3.68 -0.32 2.36 -1 1 C-0.67 0.67 -0.34 0.34 0 0 Z " fill="#20639E" transform="translate(467,187)"/>
<path d="M0 0 C2.31 0.66 4.62 1.32 7 2 C7.33 3.98 7.66 5.96 8 8 C6.85073734 7.04578192 5.70569459 6.08647955 4.5625 5.125 C3.92441406 4.59132812 3.28632813 4.05765625 2.62890625 3.5078125 C1 2 1 2 0 0 Z " fill="#6D9FC1" transform="translate(460,184)"/>
<path d="M0 0 C0.33 0 0.66 0 1 0 C1 2.64 1 5.28 1 8 C0.01 8.33 -0.98 8.66 -2 9 C-1.125 2.25 -1.125 2.25 0 0 Z " fill="#51A7C6" transform="translate(280,160)"/>
<path d="M0 0 C0 1.98 0 3.96 0 6 C-2.475 5.01 -2.475 5.01 -5 4 C-4.67 3.01 -4.34 2.02 -4 1 C-2 0 -2 0 0 0 Z " fill="#2374AB" transform="translate(458,153)"/>
<path d="M0 0 C0 0.99 0 1.98 0 3 C-0.639375 3.12375 -1.27875 3.2475 -1.9375 3.375 C-2.618125 3.58125 -3.29875 3.7875 -4 4 C-4.33 4.66 -4.66 5.32 -5 6 C-6.32 5.67 -7.64 5.34 -9 5 C-7.87926138 4.16094435 -6.75325453 3.32892169 -5.625 2.5 C-4.99851563 2.0359375 -4.37203125 1.571875 -3.7265625 1.09375 C-2 0 -2 0 0 0 Z " fill="#69A2C4" transform="translate(252,115)"/>
<path d="M0 0 C1.2065625 0.0309375 1.2065625 0.0309375 2.4375 0.0625 C2.7675 1.3825 3.0975 2.7025 3.4375 4.0625 C-1.3125 3.3125 -1.3125 3.3125 -3.5625 1.0625 C-2.5625 0.0625 -2.5625 0.0625 0 0 Z " fill="#4787B4" transform="translate(376.5625,113.9375)"/>
<path d="M0 0 C1.32 0.66 2.64 1.32 4 2 C3.34 4.31 2.68 6.62 2 9 C1.896875 8.360625 1.79375 7.72125 1.6875 7.0625 C1.460625 6.381875 1.23375 5.70125 1 5 C0.01 4.67 -0.98 4.34 -2 4 C-1.01 3.67 -0.02 3.34 1 3 C0.67 2.01 0.34 1.02 0 0 Z " fill="#5799BC" transform="translate(377,275)"/>
<path d="M0 0 C1.65 0 3.3 0 5 0 C5 0.99 5 1.98 5 3 C3.02 3 1.04 3 -1 3 C-0.67 2.01 -0.34 1.02 0 0 Z " fill="#507186" transform="translate(398,228)"/>
<path d="M0 0 C3.82097239 0.53069061 6.06171403 1.49701566 9 4 C8.01 4.33 7.02 4.66 6 5 C5.01 4.34 4.02 3.68 3 3 C3 2.34 3 1.68 3 1 C2.01 0.67 1.02 0.34 0 0 Z " fill="#D6F2F7" transform="translate(301,218)"/>
<path d="M0 0 C0.598125 0.20625 1.19625 0.4125 1.8125 0.625 C0.1625 1.945 -1.4875 3.265 -3.1875 4.625 C-3.1875 3.965 -3.1875 3.305 -3.1875 2.625 C-3.8475 2.295 -4.5075 1.965 -5.1875 1.625 C-2.1875 -0.375 -2.1875 -0.375 0 0 Z " fill="#588BAC" transform="translate(358.1875,211.375)"/>
<path d="M0 0 C2.64 0 5.28 0 8 0 C8.33 1.32 8.66 2.64 9 4 C8.01 3.34 7.02 2.68 6 2 C2.85778033 2.31506627 2.85778033 2.31506627 0 3 C0 2.01 0 1.02 0 0 Z " fill="#C7E8F1" transform="translate(302,209)"/>
<path d="M0 0 C1.8125 0.125 1.8125 0.125 4 1 C5.75 4.0625 5.75 4.0625 7 7 C6.01 7.495 6.01 7.495 5 8 C4.16382818 6.8562364 3.33113541 5.70992861 2.5 4.5625 C2.0359375 3.92441406 1.571875 3.28632813 1.09375 2.62890625 C0 1 0 1 0 0 Z " fill="#D9F1FA" transform="translate(273,206)"/>
<path d="M0 0 C0.33 0.99 0.66 1.98 1 3 C-0.32 4.32 -1.64 5.64 -3 7 C-3.1875 4.625 -3.1875 4.625 -3 2 C-2.01 1.34 -1.02 0.68 0 0 Z " fill="#2E77A7" transform="translate(249,160)"/>
<path d="M0 0 C0 3.10551666 -0.5393715 4.35261084 -2 7 C-3.32 6.67 -4.64 6.34 -6 6 C-4.02 4.02 -2.04 2.04 0 0 Z " fill="#5590BF" transform="translate(224,134)"/>
<path d="M0 0 C-0.66 0 -1.32 0 -2 0 C-2 0.66 -2 1.32 -2 2 C-4.60582371 2.93065133 -5.64198224 3.14917407 -8.25 2.0625 C-8.8275 1.711875 -9.405 1.36125 -10 1 C-3.375 -1.125 -3.375 -1.125 0 0 Z " fill="#3B7EB0" transform="translate(262,113)"/>
</svg>
